<svg width="117" height="117" viewBox="0 0 117 117" fill="none" xmlns="http://www.w3.org/2000/svg">
<circle cx="58.5" cy="58.5" r="58.5" fill="#20B842"/>
<path d="M61.296 79C60.6133 79 60.016 78.7653 59.504 78.296C59.0347 77.8267 58.8 77.2293 58.8 76.504V34.904L52.4 37.144C51.9307 37.3573 51.504 37.464 51.12 37.464C50.3947 37.464 49.7973 37.2293 49.328 36.76C48.8587 36.2907 48.624 35.7147 48.624 35.032C48.624 34.52 48.7307 34.0507 48.944 33.624C49.2 33.1973 49.6267 32.8773 50.224 32.664L60.08 29.272C60.2933 29.1867 60.5067 29.1227 60.72 29.08C60.976 28.9947 61.1893 28.952 61.36 28.952C62.0853 28.952 62.6613 29.208 63.088 29.72C63.5573 30.1893 63.792 30.7653 63.792 31.448V76.504C63.792 77.2293 63.5573 77.8267 63.088 78.296C62.6187 78.7653 62.0213 79 61.296 79Z" fill="white"/>
</svg>
