<svg width="117" height="117" viewBox="0 0 117 117" fill="none" xmlns="http://www.w3.org/2000/svg">
<circle cx="58.5" cy="58.5" r="58.5" fill="#20B842"/>
<path d="M46.04 79C45.3573 79 44.76 78.7653 44.248 78.296C43.7787 77.8267 43.544 77.2293 43.544 76.504C43.544 75.864 43.7787 75.288 44.248 74.776L63.64 51.864C64.7067 50.712 65.56 49.432 66.2 48.024C66.84 46.5733 67.16 45.2293 67.16 43.992C67.16 41.0053 66.2853 38.552 64.536 36.632C62.7867 34.712 60.5253 33.752 57.752 33.752C55.96 33.752 54.3173 34.2213 52.824 35.16C51.3733 36.056 50.2213 37.272 49.368 38.808C48.5573 40.344 48.152 42.072 48.152 43.992C48.152 44.6747 47.9173 45.2507 47.448 45.72C46.9787 46.1893 46.3813 46.424 45.656 46.424C44.9733 46.424 44.376 46.1893 43.864 45.72C43.3947 45.2507 43.16 44.6747 43.16 43.992C43.16 41.1333 43.8 38.5733 45.08 36.312C46.36 34.0507 48.088 32.2587 50.264 30.936C52.4827 29.6133 54.9787 28.952 57.752 28.952C60.5253 28.952 62.9787 29.592 65.112 30.872C67.288 32.152 68.9733 33.9227 70.168 36.184C71.4053 38.4453 72.024 41.048 72.024 43.992C72.024 46.0827 71.512 48.0667 70.488 49.944C69.5067 51.7787 68.3547 53.464 67.032 55L50.648 74.008H70.68C71.3627 74.008 71.9387 74.264 72.408 74.776C72.92 75.288 73.176 75.864 73.176 76.504C73.176 77.2293 72.92 77.8267 72.408 78.296C71.9387 78.7653 71.3627 79 70.68 79H46.04Z" fill="white"/>
</svg>
