<svg width="117" height="117" viewBox="0 0 117 117" fill="none" xmlns="http://www.w3.org/2000/svg">
<circle cx="58.5" cy="58.5" r="58.5" fill="#20B842"/>
<path d="M58.2 79.32C55.2133 79.32 52.5253 78.68 50.136 77.4C47.7893 76.0773 45.9333 74.2853 44.568 72.024C43.2027 69.7627 42.52 67.2027 42.52 64.344C42.52 63.6187 42.7333 63 43.16 62.488C43.5867 61.976 44.1627 61.72 44.888 61.72C45.6133 61.72 46.1893 61.976 46.616 62.488C47.0427 63 47.256 63.6187 47.256 64.344C47.256 66.3067 47.7253 68.0773 48.664 69.656C49.6027 71.192 50.8827 72.4293 52.504 73.368C54.168 74.264 56.0027 74.712 58.008 74.712C61.336 74.712 63.9387 73.7947 65.816 71.96C67.6933 70.0827 68.632 67.672 68.632 64.728C68.632 62.6373 68.184 60.824 67.288 59.288C66.392 57.7093 65.176 56.4933 63.64 55.64C62.104 54.744 60.376 54.296 58.456 54.296C57.7733 54.296 57.1973 54.0613 56.728 53.592C56.2587 53.1227 56.024 52.5253 56.024 51.8C56.024 51.1173 56.2587 50.5413 56.728 50.072C57.1973 49.6027 57.7733 49.368 58.456 49.368C59.9493 49.368 61.3147 49.0053 62.552 48.28C63.832 47.512 64.856 46.5093 65.624 45.272C66.392 44.0347 66.776 42.6693 66.776 41.176C66.776 38.9147 66.008 37.0373 64.472 35.544C62.936 34.008 60.888 33.24 58.328 33.24C55.64 33.24 53.4213 34.008 51.672 35.544C49.9227 37.0373 49.048 38.8933 49.048 41.112C49.048 41.8373 48.8133 42.456 48.344 42.968C47.9173 43.4373 47.3627 43.672 46.68 43.672C45.9547 43.672 45.3787 43.4373 44.952 42.968C44.5253 42.456 44.312 41.8587 44.312 41.176C44.312 38.8293 44.9093 36.7173 46.104 34.84C47.3413 32.92 49.0053 31.4267 51.096 30.36C53.1867 29.2507 55.5973 28.696 58.328 28.696C60.8027 28.696 63.0213 29.2507 64.984 30.36C66.9893 31.4267 68.568 32.92 69.72 34.84C70.9147 36.7173 71.512 38.8293 71.512 41.176C71.512 42.6267 71.1493 44.0347 70.424 45.4C69.7413 46.7653 68.824 48.0027 67.672 49.112C66.52 50.1787 65.2613 51.0107 63.896 51.608C67.1813 52.5893 69.6133 54.296 71.192 56.728C72.7707 59.16 73.56 61.8267 73.56 64.728C73.56 67.544 72.8773 70.0613 71.512 72.28C70.1893 74.456 68.3547 76.184 66.008 77.464C63.6613 78.7013 61.0587 79.32 58.2 79.32Z" fill="white"/>
</svg>
