<svg width="200" height="200" viewBox="0 0 200 200" fill="none" xmlns="http://www.w3.org/2000/svg">
<circle cx="100" cy="100" r="100" fill="#20B842"/>
<path d="M152.711 104.934L104.033 48.6233C103.593 48.1137 103.049 47.7051 102.438 47.425C101.827 47.1449 101.163 47 100.491 47C99.8196 47 99.1556 47.1449 98.5445 47.425C97.9335 47.7051 97.3895 48.1137 96.9495 48.6233L48.2869 104.934C48.1398 105.103 48.0445 105.312 48.0122 105.535C47.9799 105.757 48.012 105.984 48.1048 106.189C48.1975 106.394 48.3469 106.568 48.5352 106.69C48.7235 106.812 48.9428 106.877 49.1669 106.877H61.0465C61.7212 106.877 62.3665 106.583 62.8211 106.067L94.9255 68.9245V151.822C94.9255 152.47 95.4535 153 96.0988 153H104.899C105.544 153 106.072 152.47 106.072 151.822V68.9245L138.176 106.067C138.616 106.583 139.262 106.877 139.951 106.877H151.831C152.828 106.877 153.37 105.699 152.711 104.934Z" fill="white"/>
</svg>
