<svg width="390" height="67" viewBox="0 0 390 67" fill="none" xmlns="http://www.w3.org/2000/svg">
<path d="M6.486 50.764C5.81133 50.764 5.244 50.534 4.784 50.074C4.35467 49.6447 4.14 49.0927 4.14 48.418V27.442C4.17067 25.0193 4.738 22.842 5.842 20.91C6.946 18.978 8.44867 17.46 10.35 16.356C12.2513 15.2213 14.398 14.654 16.79 14.654C19.2127 14.654 21.3747 15.2213 23.276 16.356C25.1773 17.46 26.68 18.978 27.784 20.91C28.9187 22.842 29.486 25.0193 29.486 27.442C29.486 29.8647 28.9647 32.042 27.922 33.974C26.91 35.8753 25.5147 37.3933 23.736 38.528C21.9573 39.632 19.9487 40.184 17.71 40.184C15.9007 40.184 14.2293 39.816 12.696 39.08C11.1933 38.3133 9.90533 37.286 8.832 35.998V48.418C8.832 49.0927 8.61733 49.6447 8.188 50.074C7.75867 50.534 7.19133 50.764 6.486 50.764ZM16.79 36.044C18.354 36.044 19.7493 35.676 20.976 34.94C22.2027 34.1733 23.1687 33.146 23.874 31.858C24.61 30.5393 24.978 29.0673 24.978 27.442C24.978 25.786 24.61 24.314 23.874 23.026C23.1687 21.7073 22.2027 20.68 20.976 19.944C19.7493 19.1773 18.354 18.794 16.79 18.794C15.2567 18.794 13.8613 19.1773 12.604 19.944C11.3773 20.68 10.4113 21.7073 9.706 23.026C9.00067 24.314 8.648 25.786 8.648 27.442C8.648 29.0673 9.00067 30.5393 9.706 31.858C10.4113 33.146 11.3773 34.1733 12.604 34.94C13.8613 35.676 15.2567 36.044 16.79 36.044ZM42.4638 40C41.1144 40 39.9184 39.632 38.8758 38.896C37.8331 38.16 37.0204 37.1633 36.4378 35.906C35.8551 34.618 35.5638 33.146 35.5638 31.49V6.374C35.5638 5.69933 35.7784 5.14733 36.2078 4.718C36.6371 4.28867 37.1891 4.074 37.8638 4.074C38.5384 4.074 39.0904 4.28867 39.5198 4.718C39.9491 5.14733 40.1638 5.69933 40.1638 6.374V31.49C40.1638 32.6247 40.3784 33.56 40.8078 34.296C41.2371 35.032 41.7891 35.4 42.4638 35.4H43.6138C44.2271 35.4 44.7178 35.6147 45.0858 36.044C45.4844 36.4733 45.6838 37.0253 45.6838 37.7C45.6838 38.3747 45.3924 38.9267 44.8098 39.356C44.2271 39.7853 43.4758 40 42.5558 40H42.4638ZM59.3702 40.184C57.1315 40.184 55.1229 39.632 53.3442 38.528C51.5655 37.3933 50.1549 35.8753 49.1122 33.974C48.1002 32.042 47.5942 29.8647 47.5942 27.442C47.5942 25.0193 48.1462 22.842 49.2502 20.91C50.3849 18.978 51.9029 17.46 53.8042 16.356C55.7362 15.2213 57.8982 14.654 60.2902 14.654C62.6822 14.654 64.8289 15.2213 66.7302 16.356C68.6315 17.46 70.1342 18.978 71.2382 20.91C72.3729 22.842 72.9402 25.0193 72.9402 27.442V37.7C72.9402 38.3747 72.7102 38.942 72.2502 39.402C71.8209 39.8313 71.2689 40.046 70.5942 40.046C69.9195 40.046 69.3522 39.8313 68.8922 39.402C68.4629 38.942 68.2482 38.3747 68.2482 37.7V35.998C67.1749 37.286 65.8715 38.3133 64.3382 39.08C62.8355 39.816 61.1795 40.184 59.3702 40.184ZM60.2902 36.044C61.8542 36.044 63.2495 35.676 64.4762 34.94C65.7029 34.1733 66.6689 33.146 67.3742 31.858C68.0795 30.5393 68.4322 29.0673 68.4322 27.442C68.4322 25.786 68.0795 24.314 67.3742 23.026C66.6689 21.7073 65.7029 20.68 64.4762 19.944C63.2495 19.1773 61.8542 18.794 60.2902 18.794C58.7569 18.794 57.3615 19.1773 56.1042 19.944C54.8775 20.68 53.8962 21.7073 53.1602 23.026C52.4549 24.314 52.1022 25.786 52.1022 27.442C52.1022 29.0673 52.4549 30.5393 53.1602 31.858C53.8962 33.146 54.8775 34.1733 56.1042 34.94C57.3615 35.676 58.7569 36.044 60.2902 36.044ZM82.2692 40.046C81.5945 40.046 81.0272 39.8313 80.5672 39.402C80.1379 38.942 79.9232 38.3747 79.9232 37.7V17.184C79.9232 16.4787 80.1379 15.9113 80.5672 15.482C81.0272 15.0527 81.5945 14.838 82.2692 14.838C82.9745 14.838 83.5419 15.0527 83.9712 15.482C84.4005 15.9113 84.6152 16.4787 84.6152 17.184V17.69C85.5659 16.7393 86.7159 15.988 88.0652 15.436C89.4145 14.884 90.8712 14.608 92.4352 14.608C94.5512 14.608 96.4372 15.068 98.0932 15.988C99.7799 16.8773 101.099 18.196 102.049 19.944C103.031 21.692 103.521 23.8387 103.521 26.384V37.7C103.521 38.3747 103.291 38.942 102.831 39.402C102.402 39.8313 101.85 40.046 101.175 40.046C100.501 40.046 99.9332 39.8313 99.4732 39.402C99.0439 38.942 98.8292 38.3747 98.8292 37.7V26.384C98.8292 23.7773 98.1239 21.876 96.7132 20.68C95.3332 19.4533 93.6005 18.84 91.5152 18.84C90.2272 18.84 89.0619 19.1007 88.0192 19.622C86.9765 20.1433 86.1485 20.8487 85.5352 21.738C84.9219 22.5967 84.6152 23.5933 84.6152 24.728V37.7C84.6152 38.3747 84.4005 38.942 83.9712 39.402C83.5419 39.8313 82.9745 40.046 82.2692 40.046ZM120.433 40C118.899 40 117.519 39.6167 116.293 38.85C115.066 38.0527 114.1 36.9793 113.395 35.63C112.689 34.2807 112.337 32.7627 112.337 31.076V19.714H110.221C109.577 19.714 109.055 19.53 108.657 19.162C108.258 18.794 108.059 18.334 108.059 17.782C108.059 17.1687 108.258 16.678 108.657 16.31C109.055 15.942 109.577 15.758 110.221 15.758H112.337V9.134C112.337 8.45933 112.551 7.90733 112.981 7.478C113.41 7.04867 113.962 6.834 114.637 6.834C115.311 6.834 115.863 7.04867 116.293 7.478C116.722 7.90733 116.937 8.45933 116.937 9.134V15.758H120.847C121.491 15.758 122.012 15.942 122.411 16.31C122.809 16.678 123.009 17.1687 123.009 17.782C123.009 18.334 122.809 18.794 122.411 19.162C122.012 19.53 121.491 19.714 120.847 19.714H116.937V31.076C116.937 32.3027 117.274 33.33 117.949 34.158C118.623 34.986 119.451 35.4 120.433 35.4H121.997C122.549 35.4 123.009 35.6147 123.377 36.044C123.775 36.4733 123.975 37.0253 123.975 37.7C123.975 38.3747 123.714 38.9267 123.193 39.356C122.702 39.7853 122.058 40 121.261 40H120.433ZM153.706 40.184C151.467 40.184 149.459 39.632 147.68 38.528C145.901 37.3933 144.491 35.8753 143.448 33.974C142.436 32.042 141.93 29.8647 141.93 27.442C141.93 25.0193 142.482 22.842 143.586 20.91C144.721 18.978 146.239 17.46 148.14 16.356C150.072 15.2213 152.234 14.654 154.626 14.654C157.018 14.654 159.165 15.2213 161.066 16.356C162.967 17.46 164.47 18.978 165.574 20.91C166.709 22.842 167.276 25.0193 167.276 27.442V37.7C167.276 38.3747 167.046 38.942 166.586 39.402C166.157 39.8313 165.605 40.046 164.93 40.046C164.255 40.046 163.688 39.8313 163.228 39.402C162.799 38.942 162.584 38.3747 162.584 37.7V35.998C161.511 37.286 160.207 38.3133 158.674 39.08C157.171 39.816 155.515 40.184 153.706 40.184ZM154.626 36.044C156.19 36.044 157.585 35.676 158.812 34.94C160.039 34.1733 161.005 33.146 161.71 31.858C162.415 30.5393 162.768 29.0673 162.768 27.442C162.768 25.786 162.415 24.314 161.71 23.026C161.005 21.7073 160.039 20.68 158.812 19.944C157.585 19.1773 156.19 18.794 154.626 18.794C153.093 18.794 151.697 19.1773 150.44 19.944C149.213 20.68 148.232 21.7073 147.496 23.026C146.791 24.314 146.438 25.786 146.438 27.442C146.438 29.0673 146.791 30.5393 147.496 31.858C148.232 33.146 149.213 34.1733 150.44 34.94C151.697 35.676 153.093 36.044 154.626 36.044ZM196.89 40C195.356 40 193.976 39.6167 192.75 38.85C191.523 38.0527 190.557 36.9793 189.852 35.63C189.146 34.2807 188.794 32.7627 188.794 31.076V19.714H186.678C186.034 19.714 185.512 19.53 185.114 19.162C184.715 18.794 184.516 18.334 184.516 17.782C184.516 17.1687 184.715 16.678 185.114 16.31C185.512 15.942 186.034 15.758 186.678 15.758H188.794V9.134C188.794 8.45933 189.008 7.90733 189.438 7.478C189.867 7.04867 190.419 6.834 191.094 6.834C191.768 6.834 192.32 7.04867 192.75 7.478C193.179 7.90733 193.394 8.45933 193.394 9.134V15.758H197.304C197.948 15.758 198.469 15.942 198.868 16.31C199.266 16.678 199.466 17.1687 199.466 17.782C199.466 18.334 199.266 18.794 198.868 19.162C198.469 19.53 197.948 19.714 197.304 19.714H193.394V31.076C193.394 32.3027 193.731 33.33 194.406 34.158C195.08 34.986 195.908 35.4 196.89 35.4H198.454C199.006 35.4 199.466 35.6147 199.834 36.044C200.232 36.4733 200.432 37.0253 200.432 37.7C200.432 38.3747 200.171 38.9267 199.65 39.356C199.159 39.7853 198.515 40 197.718 40H196.89ZM217.607 40.184C215.123 40.184 212.93 39.6473 211.029 38.574C209.127 37.47 207.625 35.9673 206.521 34.066C205.447 32.134 204.911 29.926 204.911 27.442C204.911 24.9273 205.447 22.7193 206.521 20.818C207.625 18.886 209.127 17.3833 211.029 16.31C212.93 15.206 215.123 14.654 217.607 14.654C220.06 14.654 222.237 15.206 224.139 16.31C226.04 17.3833 227.527 18.886 228.601 20.818C229.705 22.7193 230.257 24.9273 230.257 27.442C230.257 29.926 229.72 32.134 228.647 34.066C227.573 35.9673 226.086 37.47 224.185 38.574C222.283 39.6473 220.091 40.184 217.607 40.184ZM217.607 36.044C219.201 36.044 220.612 35.676 221.839 34.94C223.065 34.204 224.016 33.192 224.691 31.904C225.396 30.616 225.749 29.1287 225.749 27.442C225.749 25.7553 225.396 24.268 224.691 22.98C224.016 21.6613 223.065 20.634 221.839 19.898C220.612 19.162 219.201 18.794 217.607 18.794C216.012 18.794 214.601 19.162 213.375 19.898C212.148 20.634 211.182 21.6613 210.477 22.98C209.771 24.268 209.419 25.7553 209.419 27.442C209.419 29.1287 209.771 30.616 210.477 31.904C211.182 33.192 212.148 34.204 213.375 34.94C214.601 35.676 216.012 36.044 217.607 36.044ZM239.586 40.046C238.911 40.046 238.344 39.8313 237.884 39.402C237.454 38.942 237.24 38.3747 237.24 37.7V17.23C237.24 16.5247 237.454 15.9573 237.884 15.528C238.344 15.0987 238.911 14.884 239.586 14.884C240.291 14.884 240.858 15.0987 241.288 15.528C241.717 15.9573 241.932 16.494 241.932 17.138C242.729 16.3407 243.68 15.7273 244.784 15.298C245.888 14.838 247.084 14.608 248.372 14.608C251.592 14.608 254.014 15.8193 255.64 18.242C256.529 17.1073 257.664 16.218 259.044 15.574C260.424 14.93 261.972 14.608 263.69 14.608C266.327 14.608 268.474 15.4667 270.13 17.184C271.786 18.9013 272.614 21.3547 272.614 24.544V37.7C272.614 38.3747 272.399 38.942 271.97 39.402C271.54 39.8313 270.973 40.046 270.268 40.046C269.593 40.046 269.026 39.8313 268.566 39.402C268.136 38.942 267.922 38.3747 267.922 37.7V24.544C267.922 22.612 267.446 21.186 266.496 20.266C265.545 19.3153 264.303 18.84 262.77 18.84C261.175 18.84 259.856 19.392 258.814 20.496C257.802 21.6 257.296 23.0107 257.296 24.728V37.7C257.296 38.3747 257.081 38.942 256.652 39.402C256.222 39.8313 255.655 40.046 254.95 40.046C254.275 40.046 253.708 39.8313 253.248 39.402C252.818 38.942 252.604 38.3747 252.604 37.7V24.544C252.604 22.612 252.128 21.186 251.178 20.266C250.227 19.3153 248.985 18.84 247.452 18.84C245.857 18.84 244.538 19.392 243.496 20.496C242.453 21.6 241.932 23.0107 241.932 24.728V37.7C241.932 38.3747 241.717 38.942 241.288 39.402C240.858 39.8313 240.291 40.046 239.586 40.046ZM290.898 40.184C288.659 40.184 286.65 39.632 284.872 38.528C283.093 37.3933 281.682 35.8753 280.64 33.974C279.628 32.042 279.122 29.8647 279.122 27.442C279.122 25.0193 279.674 22.842 280.778 20.91C281.912 18.978 283.43 17.46 285.332 16.356C287.264 15.2213 289.426 14.654 291.818 14.654C294.21 14.654 296.356 15.2213 298.258 16.356C300.159 17.46 301.662 18.978 302.766 20.91C303.9 22.842 304.468 25.0193 304.468 27.442V37.7C304.468 38.3747 304.238 38.942 303.778 39.402C303.348 39.8313 302.796 40.046 302.122 40.046C301.447 40.046 300.88 39.8313 300.42 39.402C299.99 38.942 299.776 38.3747 299.776 37.7V35.998C298.702 37.286 297.399 38.3133 295.866 39.08C294.363 39.816 292.707 40.184 290.898 40.184ZM291.818 36.044C293.382 36.044 294.777 35.676 296.004 34.94C297.23 34.1733 298.196 33.146 298.902 31.858C299.607 30.5393 299.96 29.0673 299.96 27.442C299.96 25.786 299.607 24.314 298.902 23.026C298.196 21.7073 297.23 20.68 296.004 19.944C294.777 19.1773 293.382 18.794 291.818 18.794C290.284 18.794 288.889 19.1773 287.632 19.944C286.405 20.68 285.424 21.7073 284.688 23.026C283.982 24.314 283.63 25.786 283.63 27.442C283.63 29.0673 283.982 30.5393 284.688 31.858C285.424 33.146 286.405 34.1733 287.632 34.94C288.889 35.676 290.284 36.044 291.818 36.044ZM320.605 40C319.071 40 317.691 39.6167 316.465 38.85C315.238 38.0527 314.272 36.9793 313.567 35.63C312.861 34.2807 312.509 32.7627 312.509 31.076V19.714H310.393C309.749 19.714 309.227 19.53 308.829 19.162C308.43 18.794 308.231 18.334 308.231 17.782C308.231 17.1687 308.43 16.678 308.829 16.31C309.227 15.942 309.749 15.758 310.393 15.758H312.509V9.134C312.509 8.45933 312.723 7.90733 313.153 7.478C313.582 7.04867 314.134 6.834 314.809 6.834C315.483 6.834 316.035 7.04867 316.465 7.478C316.894 7.90733 317.109 8.45933 317.109 9.134V15.758H321.019C321.663 15.758 322.184 15.942 322.583 16.31C322.981 16.678 323.181 17.1687 323.181 17.782C323.181 18.334 322.981 18.794 322.583 19.162C322.184 19.53 321.663 19.714 321.019 19.714H317.109V31.076C317.109 32.3027 317.446 33.33 318.121 34.158C318.795 34.986 319.623 35.4 320.605 35.4H322.169C322.721 35.4 323.181 35.6147 323.549 36.044C323.947 36.4733 324.147 37.0253 324.147 37.7C324.147 38.3747 323.886 38.9267 323.365 39.356C322.874 39.7853 322.23 40 321.433 40H320.605Z" fill="black"/>
<path d="M353.468 12.253C352.781 12.253 352.116 12.319 351.477 12.43C350.658 12.326 348.737 12.199 347.886 12.199C339.413 12.199 332 15.376 332 26.497C332 35.533 339.049 42.858 348.976 42.858C358.903 42.858 366.95 35.533 366.95 26.497C366.949 15.248 357.564 12.253 353.468 12.253Z" fill="#FF3A1A"/>
<path d="M339.413 7C341.05 8.636 342.183 9.266 342.687 11.91C342.985 13.474 344.953 13.42 344.953 13.42C344.953 13.42 341.05 15.183 339.413 16.82C339.413 16.82 344.323 15.183 345.96 15.183C345.96 15.183 349.233 16.82 349.233 18.456C349.233 18.456 349.233 15.183 347.597 15.183C347.597 15.183 352.506 15.183 352.506 18.456C352.506 18.456 352.506 13.546 350.869 13.546C350.869 13.546 355.78 11.91 357.417 13.546C357.417 13.546 355.731 11.826 352.506 11.91C352.506 11.91 354.144 10.273 357.417 10.273C357.417 10.273 352.129 8.762 350.492 12.036C350.492 12.036 349.107 10.651 351.877 7.881C351.877 7.881 347.597 8.636 347.597 11.91C347.597 11.91 346.045 11.87 344.953 10.651C342.812 8.259 339.413 7 339.413 7Z" fill="#20B842"/>
</svg>
