<svg xmlns="http://www.w3.org/2000/svg" xmlns:xlink="http://www.w3.org/1999/xlink" viewBox="0 0 460.52 389.36"><defs><style>.cls-1{fill:none;}.cls-2{isolation:isolate;}.cls-3{fill:#bb8057;}.cls-4{clip-path:url(#clip-path);}.cls-5{fill:#68442a;}.cls-6{fill:#6cd379;}.cls-7{fill:#e2bb91;}.cls-8{fill:#af9f95;}.cls-9{fill:#917f73;}.cls-10{clip-path:url(#clip-path-2);}.cls-11{fill:#c96;}.cls-12{opacity:0.5;mix-blend-mode:multiply;}.cls-13{fill:#ccb36d;}.cls-14{fill:#ffe576;}.cls-15{fill:#cdaa80;}.cls-16{fill:#967654;}.cls-17{fill:#f7a87f;}.cls-18{fill:#2a495e;}.cls-19{fill:#3c697c;}.cls-20{fill:#dd7a66;}.cls-21{fill:#4a281e;}.cls-22{fill:#728196;}.cls-23{fill:#c15e4d;}.cls-24{fill:#508699;}.cls-25{fill:#774742;}.cls-26{fill:#6b533d;}.cls-27{fill:#fff;}.cls-28{fill:#272525;}.cls-29{clip-path:url(#clip-path-3);}.cls-30{clip-path:url(#clip-path-4);}</style><clipPath id="clip-path" transform="translate(-42.07 -53.06)"><path class="cls-1" d="M258.53,239.26c15.31-3.28,146.34-24.71,133.34,12.83-1.92,5.53-5.11,5.53-1.28,10.38,3.2,3.46,11.51,4.15,15.35,4.84,8.95,1.39,19.81,2.08,24.93,11.77,22.37,42.22-66.49,74.06-90.78,82.37-37.08,12.45-72.89,24.22-111.88,27a101.47,101.47,0,0,1-24.94-.69c-10.23-1.39-15.34-5.54-23.65-11.08-14.07-9.69-34.52,2.08-50.51,1.39-14.7-.69-40.91-5.54-48.58-22.15-10.23-22.15,25.57-32.53,37.08-40.84,9-6.92,1.91-16.61,10.86-23.53,19.16-14.81,45.84-28.19,67.89-35.1C216.88,250,237.55,243.76,258.53,239.26Z"/></clipPath><clipPath id="clip-path-2" transform="translate(-42.07 -53.06)"><path class="cls-1" d="M129.37,271c-3-1,10.81-13.81,10.82-17.45,0-.68,0-1.37.08-2.09.29-4.07,2.82-7.85,5.35-10.65,7.85-8.84,18.29-12.16,29.24-11.84,3.83.25,10.7.48,12.95,4.91,1,2.31.91,5.83.26,9.06-.49,2.4,46.06,14.94,45.29,16.54-12.91,26.66-59.73,26-69.91,26.17C160,285.72,134.29,272.68,129.37,271Z"/></clipPath><clipPath id="clip-path-3" transform="translate(-42.07 -53.06)"><path class="cls-1" d="M368.49,258.16c-2.42-.52-2.72,2.16-2.24,3.2,1,2.85,4.8,2.16,6.95,2.42,5,1,9.59,1.82,14.63,3.9,3.12,1,6.47,1,9.59,1.55,3.36.26,6.71,1.56,9.83,2.08a28.21,28.21,0,0,0,17.26-2.86c2.64-1.29,13.66-7.52,10.31-11.68-1.92-2.33-9.47-13.34-12.59-13.34-5.28,0-9.37-1.57-14.65-2.6-5-.78-12.43,2.6-17.7,3.9-6.24,1.3-8.18,7.46-14.65,7.46Z"/></clipPath><clipPath id="clip-path-4" transform="translate(-42.07 -53.06)"><path class="cls-1" d="M326.77,322.12c-2.42-.52-2.72,2.17-2.24,3.2,1,2.86,4.8,2.17,7,2.43,5,1,9.59,1.81,14.62,3.89,3.12,1,6.47,1,9.59,1.56,3.36.26,6.71,1.55,9.83,2.07a28.27,28.27,0,0,0,17.26-2.85c2.64-1.3,13.67-7.53,10.31-11.68-1.92-2.34-9.47-13.35-12.59-13.35-5.27,0-9.37-1.56-14.64-2.6-5-.78-12.44,2.61-17.71,3.91-6.23,1.29-8.17,7.45-14.65,7.45Z"/></clipPath></defs><title>solar-radiation</title><g class="cls-2"><g id="BACKGROUND"><path class="cls-3" d="M258.53,239.26c15.31-3.28,146.34-24.71,133.34,12.83-1.92,5.53-5.11,5.53-1.28,10.38,3.2,3.46,11.51,4.15,15.35,4.84,8.95,1.39,19.81,2.08,24.93,11.77,22.37,42.22-66.49,74.06-90.78,82.37-37.08,12.45-72.89,24.22-111.88,27a101.47,101.47,0,0,1-24.94-.69c-10.23-1.39-15.34-5.54-23.65-11.08-14.07-9.69-34.52,2.08-50.51,1.39-14.7-.69-40.91-5.54-48.58-22.15-10.23-22.15,25.57-32.53,37.08-40.84,9-6.92,1.91-16.61,10.86-23.53,19.16-14.81,45.84-28.19,67.89-35.1C216.88,250,237.55,243.76,258.53,239.26Z" transform="translate(-42.07 -53.06)"/><g class="cls-4"><path class="cls-5" d="M155.81,409.17c1-1.95,4.9-6.45,8-4.94l.63.12c-.55-2.47,6-12.16,11.77-5.18.25-8.48,5.38-22.94,21.86-17.31a23.66,23.66,0,0,1,3.47,1.47l-.36-.66c-2.35-5.41.77-10.16,6.48-12a7.55,7.55,0,0,1,7,.7l-.31-.06c.15.15.14.63.3.53,0-3.91,2.6-8.4,5.65-10.8a16.63,16.63,0,0,1,7.14-2.6c3.62-.16,4.82,1.48,7.11,3.68-.33-4.69,7.62-13.53,14.17-6.76.17-.32,0-.94.2-1.27,1.31-1.89.92-4.68,2.4-6.9a14.44,14.44,0,0,1,5.81-5.56,11.43,11.43,0,0,1,3.75-.95c0-2.7,2.34-4.85,5.08-6.53,4.79-2.91,10.41-1.64,16.08-2.26-6.05-8,12.07-10.22,18.46-8.69-5.63-6.13,9.17-12.77,16-8.68-1.78-7.49,6.57-8.17,14.12-6.55a6.71,6.71,0,0,1,2.34-8.67c2.4-1.57,5.55-2.18,8.86-2.63s6.9.55,9.73.12c.48,0,1.25.23,1.72.2-7.19-6.41,6.57-9.69,12.65-8.22-2.3-2.2-4.14-3.48-3-6a12.5,12.5,0,0,1,5.31-4.36A31.55,31.55,0,0,1,384,277.33c.15-.09-.47-.21-.63-.36v.24c-1.51-1.94-.67-3.8.94-5.16,3.87-3.55,11-4.5,17.46-1.41l.78.43a11.71,11.71,0,0,1-1-2.84c-3.07-13.12,17.33-12.93,28.57-10.86-7.67-5.91,6.83-8,9.94-6.94l0-.47c-1.18-2.59,5.77-4.16,8.6-4.35,3.15-.36,9.7,1.07,8.34,4.62-.68,1.77-6.67,2.8-9.2,3.28,6.25,1.15,2.37,4.7-.48,5.84s-7.25.8-10.69.4c4.33,2.22.76,6.07-1.79,7.49-3.19,1.78-7.26,1.27-11.28-.65,6,4-7.37,11.94-15.95,8.89,1.21,2.27.4,4.59-2.56,6.78a23,23,0,0,1-7.33,3.63,28,28,0,0,1-4.26.76c-.33.17-4.24,0-4.25.28-.16.09-.16.09-.47,0,4.65,2-1.42,5.43-3,6.32-3,1.69-7.94,3.28-12.14,1.92,2.58,3-1.93,7.1-4.18,8.59-3.67,2.28-8.55,2.45-13.54,1.54,5.13,4.18-6.14,10-15.52,8.91,1,5.76-13.8,6.4-18.68,6.24,3.33,4.17-.5,6.54-4.31,8-4.61,1.87-9,1.07-14.17,1.19,2.06,4.87.57,7.33-4.21,9.77a32.94,32.94,0,0,1-7,2.74c-2.21.54-5,.26-7.4.65,4.41,5.85-2.3,8.07-9.65,7.26-.33,7.18-11.61,14.25-15.92,9.35-.11,3.77-1.62,7.16-5.61,9.15-2.54,1.19-9.2,3.29-12.42.68.69,3.33-2.7,6.38-5.73,8.07-1.6.89-7.66,4.28-9.12.46,0,.23,0,.23-.16.33-.32-.06-1.18,2.74-1.5,2.92a14.57,14.57,0,0,1-2.13,2.81,21,21,0,0,1-6.71,4.21c-3.68,1.52-6.94,1.48-9.61,0,1.74,6.86-12.31,14.2-15.93,8.91,1.47,3.35,1.07,6.36-2.12,8.14-2.56,1.43-8.57,2.93-10.34-.71-.39,2.53-1.11,5.71-3.36,7.43s-7.95,3.52-7.82-1.19c-1.3,1.65-4.24,5.61-6.75,5.62C154.66,416.3,154.49,411.29,155.81,409.17Z" transform="translate(-42.07 -53.06)"/><path class="cls-5" d="M498,254.69c-2.2-.16-8.25.95-8.87,4.59l-.28.63c-1.7-1.85-13.62-1.15-11.35,7.89-7.13-4.39-22.12-7.58-27.41,10.49a26,26,0,0,0-.88,4c-.11-.23-.21-.46-.33-.68-3-5.09-8.82-4.84-13.74-.62a9,9,0,0,0-3.66,6.8l.14-.32c0,.22.42.46.25.56-3.2-2.17-8.48-2.21-12.3-.73a19.61,19.61,0,0,0-6.44,5.08c-2.31,3.21-1.68,5.2-1.25,8.48-3.66-2.85-15.72-.42-14.1,9.22-.37,0-.79-.48-1.16-.51-2.35.17-4.41-1.71-7.13-1.57a15.19,15.19,0,0,0-8.08,2.27,14,14,0,0,0-3,2.89c-2.2-1.5-5.4-.5-8.44,1.07-5.28,2.78-7.62,8.59-11.54,13.41-2.93-9.85-15.68,5.43-18.28,12.08-1.65-8.46-16,1.4-16.75,9.81-5.09-5.7-10.67,1.53-13.9,9.29a6.27,6.27,0,0,0-8.53-2.59c-2.74,1.33-5.14,3.87-7.51,6.64s-3.7,6.58-5.76,8.93c-.31.41-.56,1.26-.88,1.67-.94-10-11.92.7-14.37,7-.43-3.28-.38-5.66-3.15-6a13.27,13.27,0,0,0-6.78,2.46,38.09,38.09,0,0,0-10.42,13.71c-.16.09.12-.54.09-.76l.2.12c-.69-2.43-2.72-2.68-4.81-2-5.26,1.59-10.31,7.53-11.68,15.13,0,.33-.08.63-.12.94a10.93,10.93,0,0,0-1.72-2.47c-8.95-9.94-21.08,8.74-26.15,20.1-.24-10.2-10.69,1.88-11.7,5.28l-.4-.25c-1.41-2.48-6.89,3-8.75,5.47-2.2,2.67-5,9.42-1.24,10.11,1.87.34,6.33-4.56,8.25-6.59-2.82,6.3,2.44,4.72,5.09,2.73s5-6.16,6.77-9.51c-.78,5.15,4.53,4,7.24,2.45,3.39-1.94,5.43-5.92,6.27-10.63-.38,7.62,14.26-.21,16.92-9.68,1.14,2.34,3.53,2.86,7.12,1.35a26.19,26.19,0,0,0,7.4-4.69,32.46,32.46,0,0,0,3.19-3.47c.34-.2,2.6-3.83,2.8-3.71.17-.1.17-.1.3-.41-1.12,5.34,5.32,1.66,7,.69,3.22-1.84,7.48-5.45,8.89-10,.88,4,7,2.1,9.58.87,4.1-2.1,7.18-6.45,9.43-11.49.35,6.95,11.94-.14,16.68-9.28,4.12,4.08,13.58-9.08,16.39-13.61,1.42,5.3,5.69,3.1,9.16.41,4.32-3.17,6.3-7.59,9.51-12.25,2.78,4.53,5.69,4.51,10.58,1.48a38,38,0,0,0,6.47-4.86c1.77-1.73,3.24-4.44,5-6.38,2.15,7.18,8,2.28,11.79-4.85,6.1,3.62,18.71-2.82,17.28-9.4a9.67,9.67,0,0,0,10.91-.13c2.52-1.67,8.25-6.59,8-10.94,2.32,2.44,6.87,1,10.09-.82,1.7-1,8.14-4.65,5.87-8.05.2.12.2.12.37,0,.14-.32,3,.42,3.31.23a15,15,0,0,0,3.59-.41,23,23,0,0,0,7.51-3.82c3.47-2.52,5.4-5.51,5.81-8.73,4.59,5.32,19.1-3.49,16.93-9.66,1.86,3.17,4.58,4.43,8,2.5,2.71-1.55,7.57-6.21,5.64-9.81,2.32,1,5.37,2.1,8.14,1s7.68-5.32,3.73-7.76c2.14-.29,7.17-.81,8.7-3.09C504.55,257.52,500.53,254.64,498,254.69Z" transform="translate(-42.07 -53.06)"/><path class="cls-5" d="M415.1,230.28c-2-.32-7.7.33-8.46,3.92l-.29.61c-1.48-2-12.58-2.16-10.92,7-6.4-4.9-20.14-9.2-25.94,8.42a28.17,28.17,0,0,0-1,3.88c-.08-.23-.17-.47-.27-.7-2.56-5.3-7.95-5.48-12.71-1.64a8.88,8.88,0,0,0-3.74,6.5l.15-.3c0,.22.37.49.21.58-2.86-2.4-7.76-2.84-11.37-1.65a17.61,17.61,0,0,0-6.23,4.6c-2.3,3-1.82,5.05-1.58,8.35-3.25-3.11-14.56-1.59-13.53,8.15-.34,0-.72-.54-1-.59-2.19,0-4-2-6.54-2.1A13.16,13.16,0,0,0,304.2,277a12.62,12.62,0,0,0-2.95,2.66c-2-1.67-5-.91-7.88.44-5,2.38-7.5,8-11.37,12.51-2.23-10-14.82,4.25-17.55,10.69-1.11-8.56-14.94.2-16,8.53-4.44-6.05-10,.74-13.35,8.23-1.51-3.22-4.54-4.55-7.8-3.22-2.6,1.13-4.95,3.49-7.29,6.07s-3.75,6.28-5.78,8.47c-.31.39-.59,1.22-.89,1.61-.39-10.08-11.1-.19-13.69,5.94-.23-3.3-.07-5.67-2.62-6.17a11.51,11.51,0,0,0-6.42,1.95,36.05,36.05,0,0,0-10.33,12.89c-.16.08.13-.52.11-.75l.18.14c-.51-2.47-2.39-2.87-4.36-2.3-5,1.19-9.94,6.74-11.59,14.22-.06.32-.1.62-.15.92a11.21,11.21,0,0,0-1.48-2.59c-7.81-10.57-20,7.15-25.25,18.1.29-10.19-10,1.08-11.11,4.39l-.36-.27c-1.18-2.58-6.54,2.47-8.39,4.8-2.17,2.5-5.07,9-1.64,10,1.72.48,6.1-4.08,8-6-2.93,6.08,2,4.88,4.59,3.1s5-5.77,6.75-9c-1,5.08,4,4.32,6.59,3,3.24-1.68,5.32-5.49,6.33-10.13-.72,7.57,13.24.85,16.18-8.39.94,2.41,3.13,3.11,6.54,1.87a23,23,0,0,0,7.1-4.13,29.7,29.7,0,0,0,3.13-3.22c.32-.17,2.59-3.63,2.77-3.49.17-.08.17-.08.31-.39-1.31,5.24,4.85,2.05,6.47,1.22,3.08-1.6,7.21-4.88,8.74-9.33.63,4,6.4,2.62,8.85,1.58,3.9-1.79,7-5.89,9.31-10.76,0,7,11.08.76,15.94-8,3.61,4.38,13-8,15.87-12.35,1.05,5.39,5.12,3.52,8.48,1.09,4.16-2.84,6.21-7.1,9.42-11.5,2.36,4.72,5.06,4.92,9.74,2.26a34.39,34.39,0,0,0,6.24-4.37c1.73-1.59,3.23-4.19,4.95-6,1.64,7.33,7.33,2.87,11.17-4,5.49,4.06,17.5-1.41,16.5-8.09a8.48,8.48,0,0,0,10.12.69c2.42-1.48,8-6,8-10.31,2,2.6,6.33,1.52,9.41-.07,1.61-.84,7.77-4,5.84-7.6.18.14.18.14.34.06.14-.31,2.73.64,3.05.47a12.79,12.79,0,0,0,3.35-.14,20.33,20.33,0,0,0,7.16-3.25c3.34-2.26,5.28-5.09,5.82-8.28,4,5.65,17.89-2.06,16.18-8.37,1.57,3.3,4,4.76,7.27,3.08,2.59-1.34,7.33-5.62,5.72-9.35,2.1,1.19,4.88,2.49,7.5,1.59s7.39-4.74,3.84-7.47c2-.12,6.7-.27,8.22-2.43C421.05,233.59,417.46,230.42,415.1,230.28Z" transform="translate(-42.07 -53.06)"/><path class="cls-5" d="M82.68,368.26c1-1.92,5-6.3,8.11-4.7l.62.14c-.49-2.49,6.31-12,11.89-4.83.46-8.48,6-22.78,22.29-16.66a22.25,22.25,0,0,1,3.43,1.57c-.11-.22-.23-.44-.34-.67-2.21-5.48,1-10.14,6.77-11.76a7.54,7.54,0,0,1,7,.9l-.31-.06c.15.15.12.62.28.53.06-3.91,2.81-8.32,5.93-10.63a16.6,16.6,0,0,1,7.2-2.39c3.62-.06,4.78,1.62,7,3.89-.22-4.69,8-13.3,14.33-6.34.18-.32,0-.94.23-1.26,1.36-1.85,1-4.66,2.57-6.83a14.37,14.37,0,0,1,6-5.39,11.59,11.59,0,0,1,3.77-.83c0-2.71,2.46-4.78,5.24-6.39,4.87-2.77,10.45-1.33,16.14-1.78-5.85-8.16,12.32-9.86,18.67-8.15-5.47-6.29,9.48-12.49,16.17-8.2-1.59-7.54,6.77-8,14.28-6.13a6.7,6.7,0,0,1,2.55-8.6c2.44-1.5,5.61-2,8.93-2.37s6.88.75,9.72.41c.48,0,1.25.27,1.72.25-7-6.62,6.8-9.5,12.84-7.85-2.23-2.26-4-3.6-2.81-6.08a12.35,12.35,0,0,1,5.42-4.19,31.51,31.51,0,0,1,15.75-.68c.17-.08-.46-.21-.61-.37v.24c-1.46-2-.58-3.81,1.07-5.13,4-3.44,11.07-4.18,17.49-.89l.77.45a11.8,11.8,0,0,1-.95-2.87c-2.74-13.21,17.65-12.42,28.84-10-7.53-6.13,7-7.78,10.11-6.64l0-.48c-1.11-2.61,5.88-4,8.71-4.08,3.16-.28,9.67,1.35,8.22,4.85-.72,1.75-6.74,2.6-9.27,3,6.21,1.33,2.25,4.77-.64,5.81s-7.26.59-10.69.1c4.27,2.34.61,6.08-2,7.43-3.23,1.69-7.29,1.06-11.26-1,5.91,4.13-7.67,11.72-16.17,8.43,1.16,2.3.29,4.59-2.73,6.69a22.66,22.66,0,0,1-7.41,3.42,26.81,26.81,0,0,1-4.28.63c-.33.17-4.24-.08-4.26.16-.16.09-.16.09-.47,0,4.6,2.17-1.55,5.38-3.17,6.23-3.07,1.6-8,3-12.19,1.55,2.51,3-2.11,7.05-4.39,8.47-3.73,2.17-8.61,2.2-13.58,1.13,5,4.34-6.38,9.84-15.73,8.46.89,5.79-13.95,6-18.83,5.69,3.23,4.26-.67,6.52-4.51,7.84-4.66,1.75-9,.81-14.19.77,1.93,4.94.38,7.35-4.46,9.65a33.12,33.12,0,0,1-7.05,2.54c-2.23.47-5,.11-7.41.43,4.25,6-2.51,8-9.84,7-.51,7.17-12,13.9-16.15,8.88-.2,3.76-1.8,7.11-5.83,9-2.58,1.12-9.28,3-12.44.32.61,3.34-2.85,6.29-5.93,7.9-1.62.84-7.76,4.05-9.12.18,0,.24,0,.24-.18.32-.31-.06-1.25,2.71-1.57,2.88a14.76,14.76,0,0,1-2.19,2.75,20.86,20.86,0,0,1-6.82,4c-3.72,1.41-7,1.27-9.6-.26,1.56,6.91-12.67,13.83-16.16,8.44,1.39,3.39.91,6.38-2.32,8.07-2.59,1.35-8.63,2.67-10.32-1-.45,2.52-1.25,5.68-3.54,7.34s-8,3.28-7.79-1.43c-1.34,1.62-4.38,5.49-6.89,5.43C81.34,375.36,81.3,370.34,82.68,368.26Z" transform="translate(-42.07 -53.06)"/><path class="cls-5" d="M342.53,199.5c-2-.31-7.7.34-8.46,3.92l-.29.61c-1.48-2-12.58-2.16-10.92,7-6.4-4.91-20.14-9.21-25.94,8.42a27.8,27.8,0,0,0-1,3.88,6.86,6.86,0,0,0-.27-.71c-2.56-5.3-7.94-5.47-12.71-1.63a8.86,8.86,0,0,0-3.74,6.5l.15-.31c0,.23.37.5.21.58-2.86-2.4-7.76-2.83-11.37-1.64a17.7,17.7,0,0,0-6.23,4.59c-2.3,3-1.82,5.06-1.58,8.36-3.25-3.12-14.56-1.59-13.53,8.15-.34-.05-.71-.54-1.05-.6-2.19,0-4-2-6.54-2.09a13,13,0,0,0-7.6,1.65,12.71,12.71,0,0,0-3,2.67c-2-1.67-5-.91-7.88.43-5,2.39-7.49,8-11.37,12.52-2.23-10-14.81,4.25-17.55,10.69-1.11-8.56-14.93.2-16,8.53-4.44-6.06-10,.74-13.35,8.23-1.51-3.23-4.54-4.55-7.8-3.22-2.6,1.12-5,3.48-7.29,6.06s-3.75,6.29-5.78,8.48c-.31.39-.58,1.21-.89,1.6-.38-10.08-11.1-.19-13.69,5.95-.23-3.3-.07-5.67-2.62-6.18a11.67,11.67,0,0,0-6.42,1.95,36.18,36.18,0,0,0-10.33,12.9c-.16.08.13-.53.11-.75l.18.14c-.51-2.48-2.39-2.88-4.36-2.31-5,1.2-9.94,6.74-11.59,14.22-.06.32-.1.62-.15.93a11,11,0,0,0-1.48-2.59c-7.8-10.58-20,7.15-25.25,18.1.29-10.19-10,1.07-11.11,4.39l-.35-.28c-1.19-2.58-6.55,2.48-8.4,4.81-2.17,2.49-5.07,9-1.64,10,1.72.48,6.1-4.07,8-6-2.93,6.09,2,4.89,4.59,3.11s5-5.77,6.75-9c-1,5.07,4,4.32,6.59,3,3.24-1.68,5.32-5.5,6.34-10.13-.73,7.57,13.23.84,16.17-8.4.94,2.42,3.13,3.12,6.54,1.88a22.85,22.85,0,0,0,7.1-4.13,30.64,30.64,0,0,0,3.13-3.22c.32-.17,2.6-3.63,2.77-3.49.17-.09.17-.09.31-.39-1.3,5.24,4.85,2,6.47,1.21,3.08-1.59,7.21-4.87,8.75-9.32.62,4,6.4,2.62,8.84,1.58,3.9-1.79,7-5.89,9.31-10.76,0,7,11.08.75,15.94-8,3.61,4.38,13-8,15.87-12.35,1.06,5.39,5.12,3.51,8.48,1.09,4.16-2.84,6.21-7.1,9.42-11.51,2.36,4.72,5.06,4.92,9.74,2.27a33.64,33.64,0,0,0,6.24-4.38c1.73-1.58,3.23-4.18,5-6,1.64,7.33,7.33,2.88,11.17-3.95,5.49,4.06,17.5-1.42,16.5-8.09a8.51,8.51,0,0,0,10.13.69c2.41-1.48,8-6,8-10.31,2,2.6,6.32,1.52,9.4-.08,1.61-.84,7.77-4,5.84-7.59.18.14.18.14.34.05.14-.3,2.73.64,3.06.47a12.38,12.38,0,0,0,3.35-.13,20.21,20.21,0,0,0,7.15-3.26c3.34-2.25,5.28-5.09,5.82-8.27,4,5.64,17.89-2.06,16.18-8.37,1.58,3.29,4,4.76,7.27,3.08,2.6-1.34,7.33-5.62,5.72-9.35,2.1,1.19,4.88,2.49,7.5,1.59s7.39-4.74,3.84-7.47c2-.13,6.7-.27,8.22-2.43C348.48,202.82,344.89,199.65,342.53,199.5Z" transform="translate(-42.07 -53.06)"/></g><path class="cls-6" d="M151.35,333.76a43.14,43.14,0,0,0-1.15,5.83c-.25,1.91-.39,3.82-.52,5.76s-.24,3.91-.44,5.91a31.37,31.37,0,0,1-1.09,6,34.31,34.31,0,0,1-1.27-6,33.05,33.05,0,0,1-.19-6.14,22.11,22.11,0,0,1,1.23-6.13A12.48,12.48,0,0,1,151.35,333.76Z" transform="translate(-42.07 -53.06)"/><path class="cls-6" d="M144.63,325.8c.55,2.64.9,5.24,1.24,7.83s.6,5.2.78,7.82.27,5.25.19,7.9a39.65,39.65,0,0,1-.93,7.94c-.63-2.62-1-5.21-1.42-7.81s-.66-5.2-.83-7.83a69.67,69.67,0,0,1-.13-7.92A37.58,37.58,0,0,1,144.63,325.8Z" transform="translate(-42.07 -53.06)"/><path class="cls-6" d="M136,328.57a38.78,38.78,0,0,1,3.76,6.82,39.64,39.64,0,0,1,2.4,7.44,28.91,28.91,0,0,1,.64,7.88,19,19,0,0,1-2,7.62,60.3,60.3,0,0,0-.36-7.57c-.27-2.46-.7-4.88-1.21-7.31s-1.11-4.86-1.7-7.32S136.35,331.18,136,328.57Z" transform="translate(-42.07 -53.06)"/><path class="cls-6" d="M134.72,345.53a6.87,6.87,0,0,1,2.66,2.74,10.74,10.74,0,0,1,1.22,3.53,12.77,12.77,0,0,1,.09,3.65A10.24,10.24,0,0,1,137.6,359a15.74,15.74,0,0,1-1.27-3.42c-.29-1.12-.5-2.22-.68-3.3s-.34-2.16-.49-3.25S134.85,346.84,134.72,345.53Z" transform="translate(-42.07 -53.06)"/><path class="cls-6" d="M350.52,302.33a43.45,43.45,0,0,0-1.15,5.83c-.25,1.91-.39,3.82-.52,5.76s-.24,3.91-.44,5.91a30.58,30.58,0,0,1-1.09,6,33.68,33.68,0,0,1-1.26-6,32.13,32.13,0,0,1-.2-6.13,22.18,22.18,0,0,1,1.23-6.14A12.54,12.54,0,0,1,350.52,302.33Z" transform="translate(-42.07 -53.06)"/><path class="cls-6" d="M343.8,294.37c.55,2.65.9,5.24,1.25,7.84s.59,5.19.77,7.81.27,5.25.19,7.9a39.75,39.75,0,0,1-.93,7.95c-.63-2.63-1-5.22-1.42-7.82s-.66-5.2-.83-7.82a69.84,69.84,0,0,1-.13-7.93A37.58,37.58,0,0,1,343.8,294.37Z" transform="translate(-42.07 -53.06)"/><path class="cls-6" d="M335.17,297.14a38.78,38.78,0,0,1,3.76,6.82,39.64,39.64,0,0,1,2.4,7.44,28.91,28.91,0,0,1,.64,7.88,18.86,18.86,0,0,1-2,7.62,60.49,60.49,0,0,0-.36-7.57c-.27-2.46-.7-4.88-1.21-7.31s-1.11-4.85-1.7-7.31S335.52,299.75,335.17,297.14Z" transform="translate(-42.07 -53.06)"/><path class="cls-6" d="M333.89,314.1a6.87,6.87,0,0,1,2.66,2.74,11.08,11.08,0,0,1,1.23,3.53,13.21,13.21,0,0,1,.08,3.66,10.15,10.15,0,0,1-1.09,3.57,15.81,15.81,0,0,1-1.27-3.43c-.28-1.12-.5-2.22-.68-3.3s-.34-2.15-.49-3.25S334,315.41,333.89,314.1Z" transform="translate(-42.07 -53.06)"/><path class="cls-6" d="M249.19,240.59a43.14,43.14,0,0,0-1.15,5.83c-.25,1.9-.39,3.82-.52,5.76s-.24,3.91-.44,5.91a31.37,31.37,0,0,1-1.09,6,34.42,34.42,0,0,1-1.27-6,32.92,32.92,0,0,1-.19-6.13,22.11,22.11,0,0,1,1.23-6.13A12.48,12.48,0,0,1,249.19,240.59Z" transform="translate(-42.07 -53.06)"/><path class="cls-6" d="M242.47,232.63c.55,2.64.9,5.23,1.24,7.83s.6,5.2.78,7.82.27,5.25.19,7.9a39.65,39.65,0,0,1-.93,7.94c-.63-2.62-1-5.21-1.42-7.81s-.66-5.2-.83-7.83a69.67,69.67,0,0,1-.13-7.92A37.58,37.58,0,0,1,242.47,232.63Z" transform="translate(-42.07 -53.06)"/><path class="cls-6" d="M233.84,235.4a38.78,38.78,0,0,1,3.76,6.82,39.64,39.64,0,0,1,2.4,7.44,28.91,28.91,0,0,1,.64,7.88,19,19,0,0,1-2,7.62,60.3,60.3,0,0,0-.36-7.57c-.27-2.46-.7-4.88-1.21-7.31s-1.11-4.86-1.7-7.32S234.19,238,233.84,235.4Z" transform="translate(-42.07 -53.06)"/><path class="cls-6" d="M232.56,252.36a6.87,6.87,0,0,1,2.66,2.74,10.77,10.77,0,0,1,1.22,3.52,12.84,12.84,0,0,1,.09,3.66,10.09,10.09,0,0,1-1.09,3.57,15.62,15.62,0,0,1-1.27-3.43c-.29-1.12-.5-2.21-.68-3.29s-.34-2.16-.49-3.25S232.69,253.67,232.56,252.36Z" transform="translate(-42.07 -53.06)"/><path class="cls-6" d="M348.25,264.75a44.42,44.42,0,0,0-1.15,5.83c-.25,1.9-.39,3.82-.51,5.76s-.24,3.91-.44,5.91a31.37,31.37,0,0,1-1.09,6,34.42,34.42,0,0,1-1.27-6,32.92,32.92,0,0,1-.2-6.13,22.55,22.55,0,0,1,1.23-6.14A12.61,12.61,0,0,1,348.25,264.75Z" transform="translate(-42.07 -53.06)"/><path class="cls-6" d="M341.54,256.79c.54,2.64.9,5.23,1.24,7.83s.6,5.2.78,7.82.26,5.25.19,7.9a39.65,39.65,0,0,1-.93,7.94c-.63-2.62-1.05-5.21-1.43-7.81s-.65-5.2-.83-7.83a74.67,74.67,0,0,1-.13-7.92A36.87,36.87,0,0,1,341.54,256.79Z" transform="translate(-42.07 -53.06)"/><path class="cls-6" d="M332.91,259.56a39.44,39.44,0,0,1,3.76,6.82,40.38,40.38,0,0,1,2.4,7.44,29.72,29.72,0,0,1,.64,7.88,18.8,18.8,0,0,1-2,7.62,60.33,60.33,0,0,0-.35-7.57c-.27-2.46-.71-4.88-1.22-7.31s-1.11-4.86-1.69-7.32S333.26,262.16,332.91,259.56Z" transform="translate(-42.07 -53.06)"/><path class="cls-6" d="M331.63,276.51a7,7,0,0,1,2.65,2.74,10.92,10.92,0,0,1,1.23,3.53,12.49,12.49,0,0,1,.08,3.66,10.34,10.34,0,0,1-1.08,3.57,15.3,15.3,0,0,1-1.27-3.43c-.29-1.12-.5-2.21-.69-3.29s-.33-2.16-.48-3.25S331.76,277.83,331.63,276.51Z" transform="translate(-42.07 -53.06)"/><path class="cls-6" d="M164.37,286.87a42.84,42.84,0,0,0-1.15,5.83c-.25,1.9-.39,3.82-.52,5.76s-.24,3.91-.43,5.9a30.61,30.61,0,0,1-1.1,6,34.39,34.39,0,0,1-1.26-6,32.08,32.08,0,0,1-.2-6.13,22.55,22.55,0,0,1,1.23-6.14A12.61,12.61,0,0,1,164.37,286.87Z" transform="translate(-42.07 -53.06)"/><path class="cls-6" d="M157.66,278.91c.54,2.64.89,5.23,1.24,7.83s.59,5.2.77,7.81.27,5.26.2,7.91a41.25,41.25,0,0,1-.93,7.94c-.63-2.63-1.05-5.21-1.43-7.81s-.65-5.21-.83-7.83a72.24,72.24,0,0,1-.13-7.93A36.87,36.87,0,0,1,157.66,278.91Z" transform="translate(-42.07 -53.06)"/><path class="cls-6" d="M149,281.68a41,41,0,0,1,6.15,14.26,28.88,28.88,0,0,1,.64,7.88,18.63,18.63,0,0,1-2,7.62,62.29,62.29,0,0,0-.35-7.57c-.28-2.46-.71-4.89-1.22-7.31s-1.11-4.86-1.7-7.32S149.37,284.28,149,281.68Z" transform="translate(-42.07 -53.06)"/><path class="cls-6" d="M147.75,298.63a7,7,0,0,1,2.65,2.74,11.17,11.17,0,0,1,1.23,3.53,12.49,12.49,0,0,1,.08,3.66,10.15,10.15,0,0,1-1.09,3.57,15.25,15.25,0,0,1-1.26-3.43c-.29-1.12-.51-2.21-.69-3.3s-.33-2.15-.49-3.24S147.88,300,147.75,298.63Z" transform="translate(-42.07 -53.06)"/><path class="cls-6" d="M365.58,221.55a43.45,43.45,0,0,0-1.15,5.83c-.25,1.91-.39,3.82-.52,5.77s-.24,3.91-.44,5.9a31.33,31.33,0,0,1-1.09,6,34.61,34.61,0,0,1-1.27-6,33,33,0,0,1-.19-6.13,22.18,22.18,0,0,1,1.23-6.14A12.61,12.61,0,0,1,365.58,221.55Z" transform="translate(-42.07 -53.06)"/><path class="cls-6" d="M358.86,213.6c.55,2.64.9,5.23,1.24,7.83s.6,5.2.78,7.81.27,5.26.19,7.91a39.73,39.73,0,0,1-.93,7.94c-.63-2.63-1-5.22-1.42-7.81s-.66-5.21-.83-7.83a69.84,69.84,0,0,1-.13-7.93A37.49,37.49,0,0,1,358.86,213.6Z" transform="translate(-42.07 -53.06)"/><path class="cls-6" d="M350.23,216.36a39.14,39.14,0,0,1,3.76,6.82,39.88,39.88,0,0,1,2.4,7.44,29,29,0,0,1,.64,7.89,19,19,0,0,1-2,7.62,60.55,60.55,0,0,0-.36-7.58c-.27-2.45-.7-4.88-1.21-7.3s-1.11-4.86-1.7-7.32S350.58,219,350.23,216.36Z" transform="translate(-42.07 -53.06)"/><path class="cls-6" d="M349,233.32a7,7,0,0,1,2.66,2.74,10.9,10.9,0,0,1,1.22,3.53,12.84,12.84,0,0,1,.09,3.66,10.15,10.15,0,0,1-1.09,3.57,15.81,15.81,0,0,1-1.27-3.43c-.29-1.12-.5-2.21-.68-3.3s-.34-2.15-.49-3.25S349.08,234.63,349,233.32Z" transform="translate(-42.07 -53.06)"/><path class="cls-6" d="M277.47,345.07a44.75,44.75,0,0,0-1.15,5.83c-.25,1.9-.39,3.82-.51,5.76s-.25,3.91-.44,5.91a30.65,30.65,0,0,1-1.1,6,34.39,34.39,0,0,1-1.26-6,32.92,32.92,0,0,1-.2-6.13,22.55,22.55,0,0,1,1.23-6.14A12.61,12.61,0,0,1,277.47,345.07Z" transform="translate(-42.07 -53.06)"/><path class="cls-6" d="M270.76,337.11c.54,2.64.9,5.23,1.24,7.83s.59,5.2.77,7.82.27,5.25.2,7.9a39.65,39.65,0,0,1-.93,7.94c-.63-2.62-1.05-5.21-1.43-7.81s-.65-5.2-.83-7.83a74.63,74.63,0,0,1-.13-7.92A36.87,36.87,0,0,1,270.76,337.11Z" transform="translate(-42.07 -53.06)"/><path class="cls-6" d="M262.13,339.88a39.44,39.44,0,0,1,3.76,6.82,40.38,40.38,0,0,1,2.4,7.44,29.72,29.72,0,0,1,.64,7.88,18.8,18.8,0,0,1-2,7.62,60.33,60.33,0,0,0-.35-7.57c-.27-2.46-.71-4.88-1.22-7.31s-1.11-4.86-1.69-7.32S262.48,342.48,262.13,339.88Z" transform="translate(-42.07 -53.06)"/><path class="cls-6" d="M260.85,356.83a7,7,0,0,1,2.65,2.74,10.92,10.92,0,0,1,1.23,3.53,12.49,12.49,0,0,1,.08,3.66,10.28,10.28,0,0,1-1.08,3.57,15.3,15.3,0,0,1-1.27-3.43c-.29-1.12-.5-2.21-.69-3.29s-.33-2.16-.48-3.25S261,358.15,260.85,356.83Z" transform="translate(-42.07 -53.06)"/><path class="cls-6" d="M208.08,341.73a43.14,43.14,0,0,0-1.15,5.83c-.25,1.9-.39,3.82-.52,5.76s-.24,3.91-.44,5.91a31.37,31.37,0,0,1-1.09,6,34.42,34.42,0,0,1-1.27-6,32.92,32.92,0,0,1-.19-6.13,22.18,22.18,0,0,1,1.23-6.14A12.51,12.51,0,0,1,208.08,341.73Z" transform="translate(-42.07 -53.06)"/><path class="cls-6" d="M201.36,333.77c.55,2.64.9,5.23,1.24,7.83s.6,5.2.78,7.82.27,5.25.19,7.9a39.65,39.65,0,0,1-.93,7.94c-.63-2.62-1-5.21-1.42-7.81s-.66-5.2-.83-7.83a69.67,69.67,0,0,1-.13-7.92A37.49,37.49,0,0,1,201.36,333.77Z" transform="translate(-42.07 -53.06)"/><path class="cls-6" d="M192.73,336.54a38.78,38.78,0,0,1,3.76,6.82,39.64,39.64,0,0,1,2.4,7.44,28.91,28.91,0,0,1,.64,7.88,19,19,0,0,1-2,7.62,60.3,60.3,0,0,0-.36-7.57c-.27-2.46-.7-4.88-1.21-7.31s-1.11-4.86-1.7-7.32S193.08,339.14,192.73,336.54Z" transform="translate(-42.07 -53.06)"/><path class="cls-6" d="M191.45,353.49a7,7,0,0,1,2.66,2.74,10.9,10.9,0,0,1,1.22,3.53,12.84,12.84,0,0,1,.09,3.66,10.3,10.3,0,0,1-1.09,3.57,15.81,15.81,0,0,1-1.27-3.43c-.29-1.12-.5-2.21-.68-3.29s-.34-2.16-.49-3.25S191.58,354.81,191.45,353.49Z" transform="translate(-42.07 -53.06)"/><path class="cls-7" d="M136.73,281.62c0,.76,1.41,1.38,3.15,1.38s3.15-.62,3.15-1.38-1.41-1.39-3.15-1.39S136.73,280.85,136.73,281.62Z" transform="translate(-42.07 -53.06)"/><path class="cls-7" d="M133.45,278c0,.38.73.69,1.64.69s1.64-.31,1.64-.69-.74-.7-1.64-.7S133.45,277.6,133.45,278Z" transform="translate(-42.07 -53.06)"/><path class="cls-7" d="M128.94,276.77c0,.29.39.52.86.52s.86-.23.86-.52-.38-.52-.86-.52S128.94,276.49,128.94,276.77Z" transform="translate(-42.07 -53.06)"/><path class="cls-7" d="M129.8,284.33c0,.73,1,1.33,2.14,1.33s2.14-.6,2.14-1.33-1-1.33-2.14-1.33S129.8,283.6,129.8,284.33Z" transform="translate(-42.07 -53.06)"/><path class="cls-7" d="M122.9,270.29c0,.71,1.14,1.29,2.55,1.29S128,271,128,270.29s-1.14-1.3-2.56-1.3S122.9,269.57,122.9,270.29Z" transform="translate(-42.07 -53.06)"/><path class="cls-7" d="M205.38,241.57c0,.81,1.11,1.46,2.47,1.46s2.47-.65,2.47-1.46-1.1-1.46-2.47-1.46S205.38,240.76,205.38,241.57Z" transform="translate(-42.07 -53.06)"/><path class="cls-7" d="M198.66,239.23c0,.49,1.21.88,2.71.88s2.72-.39,2.72-.88-1.22-.87-2.72-.87S198.66,238.75,198.66,239.23Z" transform="translate(-42.07 -53.06)"/><path class="cls-7" d="M197.14,244.24c0,.67,1,1.21,2.12,1.21s2.11-.54,2.11-1.21-.94-1.21-2.11-1.21S197.14,243.57,197.14,244.24Z" transform="translate(-42.07 -53.06)"/><path class="cls-7" d="M213.47,242.3c0,.4,1.26.73,2.8.73s2.8-.33,2.8-.73-1.25-.73-2.8-.73S213.47,241.9,213.47,242.3Z" transform="translate(-42.07 -53.06)"/><path class="cls-7" d="M209.43,247.36c0,.57.68,1,1.52,1s1.51-.47,1.51-1-.68-1-1.51-1S209.43,246.78,209.43,247.36Z" transform="translate(-42.07 -53.06)"/><ellipse class="cls-7" cx="177.44" cy="193.78" rx="1.36" ry="0.52"/><path class="cls-7" d="M136.73,281.62c0,.76,1.41,1.38,3.15,1.38s3.15-.62,3.15-1.38-1.41-1.39-3.15-1.39S136.73,280.85,136.73,281.62Z" transform="translate(-42.07 -53.06)"/><path class="cls-7" d="M133.45,278c0,.38.73.69,1.64.69s1.64-.31,1.64-.69-.74-.7-1.64-.7S133.45,277.6,133.45,278Z" transform="translate(-42.07 -53.06)"/><path class="cls-7" d="M128.94,276.77c0,.29.39.52.86.52s.86-.23.86-.52-.38-.52-.86-.52S128.94,276.49,128.94,276.77Z" transform="translate(-42.07 -53.06)"/><path class="cls-7" d="M129.8,284.33c0,.73,1,1.33,2.14,1.33s2.14-.6,2.14-1.33-1-1.33-2.14-1.33S129.8,283.6,129.8,284.33Z" transform="translate(-42.07 -53.06)"/><path class="cls-7" d="M122.9,270.29c0,.71,1.14,1.29,2.55,1.29S128,271,128,270.29s-1.14-1.3-2.56-1.3S122.9,269.57,122.9,270.29Z" transform="translate(-42.07 -53.06)"/><path class="cls-7" d="M205.38,241.57c0,.81,1.11,1.46,2.47,1.46s2.47-.65,2.47-1.46-1.1-1.46-2.47-1.46S205.38,240.76,205.38,241.57Z" transform="translate(-42.07 -53.06)"/><path class="cls-7" d="M198.66,239.23c0,.49,1.21.88,2.71.88s2.72-.39,2.72-.88-1.22-.87-2.72-.87S198.66,238.75,198.66,239.23Z" transform="translate(-42.07 -53.06)"/><path class="cls-7" d="M197.14,244.24c0,.67,1,1.21,2.12,1.21s2.11-.54,2.11-1.21-.94-1.21-2.11-1.21S197.14,243.57,197.14,244.24Z" transform="translate(-42.07 -53.06)"/><path class="cls-7" d="M213.47,242.3c0,.4,1.26.73,2.8.73s2.8-.33,2.8-.73-1.25-.73-2.8-.73S213.47,241.9,213.47,242.3Z" transform="translate(-42.07 -53.06)"/><path class="cls-7" d="M209.43,247.36c0,.57.68,1,1.52,1s1.51-.47,1.51-1-.68-1-1.51-1S209.43,246.78,209.43,247.36Z" transform="translate(-42.07 -53.06)"/><ellipse class="cls-7" cx="177.44" cy="193.78" rx="1.36" ry="0.52"/><path class="cls-8" d="M172.53,224.49c-1.4-1.87-.15-5.78-1.8-7.47-1.61-1.91-3.75-.46-5.68-.36-2.38.25-4.58-.62-7-1.3-10.43-2.62-20.39-2.85-30.09,3.42-4.56,3.3-7.85,8-11.31,12.41-2.15,2.82-3.32,2.14-6.28,3.44-3.25,1.7-2.57,4.13.46,5.15,4.44,1.51,8.57,2.27,12.9,4.45,4.3,2.41,9.28,5.86,11.47,10.87,1.09,2.5,1.22,5.75,3.73,7.36,3.12,2.08,8.59,1.77,12.13,2a49.74,49.74,0,0,0,13.51-.5c10.71-2.15,18.64-5.39,24.85-15.67,2.87-4.76,4-12.14.78-17.12-2.43-3.44-9.11-5.59-13.07-6.1Z" transform="translate(-42.07 -53.06)"/><path class="cls-9" d="M144,261.17c-3.55-1.2-4.1-5.13-3.77-9.7.29-4.07,2.82-7.85,5.35-10.65,7.85-8.84,18.29-12.16,29.24-11.84,3.83.25,10.7.48,12.95,4.91,1.71,4,.25,11.7-2,15.18-6.5,10-16.47,13-26.66,13.15C155.72,262.28,149,262.85,144,261.17Z" transform="translate(-42.07 -53.06)"/><path class="cls-9" d="M167.71,224.06a8.48,8.48,0,0,0-4.7.38,30.86,30.86,0,0,0-4.4,1.86,43.27,43.27,0,0,0-8.19,4.89,41.47,41.47,0,0,0-6.7,6.74,95.46,95.46,0,0,0-5.58,7.77l-.69,1.05-.14-1.25a14.1,14.1,0,0,1,2.38-8.59,35.79,35.79,0,0,1,5.64-6.85,32.86,32.86,0,0,1,7-5.4,25.2,25.2,0,0,1,8.36-3l0,.83a15.92,15.92,0,0,0-7.28.58,23.52,23.52,0,0,0-6.83,3,31.52,31.52,0,0,0-5.71,4.87,21.7,21.7,0,0,0-4.14,6.27,20.63,20.63,0,0,1,3.91-6.47,30.17,30.17,0,0,1,5.64-5.12,24.35,24.35,0,0,1,6.94-3.21,24,24,0,0,1,3.76-.81,11.25,11.25,0,0,1,3.92.09l2.12.48-2.16.35a24.11,24.11,0,0,0-8.05,3,31.3,31.3,0,0,0-6.8,5.3,38.36,38.36,0,0,0-5.5,6.65,13.16,13.16,0,0,0-2.3,8l-.82-.2a91.79,91.79,0,0,1,5.69-7.79,42.16,42.16,0,0,1,7-6.72,32.79,32.79,0,0,1,4.07-2.62c1.41-.79,2.89-1.41,4.34-2.1a31.42,31.42,0,0,1,4.5-1.73A8.4,8.4,0,0,1,167.71,224.06Z" transform="translate(-42.07 -53.06)"/><g class="cls-10"><path class="cls-7" d="M230.56,261.05c-.09-1.33-1.72-1.84-2.68-1.48,1.62-1.33-2.72-2.57-3.83-1.9-.92-1.81-3.64-3.07-5.21-1.4-.69-2-2.73-3.12-4.44-1.8-.91-1.26-2.21-2.59-3.57-1-.84-1-2.21-1.93-3.4-.74.49-1.87-2.05-1.68-2.81-.73,1.2-2.51-1.67-2.16-3-1.43.54-.88-.08-1.43-.86-1.57s-1.14.22-1.83.75c0-1.86-2.68-2.13-3.52-.65.05-2.83-1.52-3.77-3.63-1.87a2.18,2.18,0,0,0-3.87-.94c.2-1.83-1-2.39-2.37-2l-.27-.68c.37-1.13.25-2.28-1-2.25-.18-.36-.38-.71-.58-1.05,0-1.07-.32-1.88-1.27-1.87a13,13,0,0,0-.91-1.06,2.57,2.57,0,0,0-2.73-2.25l-.38-.25c0-1.65-.37-1.76-1.78-2.43-.28-.16-.42.14-.6,0s-.31-.6-.59-.76c-.45-.31-1.1-.64-1.58-.19-.42-1.16-2.88-2.16-3.83-1.25-.07-1.43-1.51-1.26-2.39-1.42a17.63,17.63,0,0,0-3.25-1,12.13,12.13,0,0,0-5.46,1.06c-1.67.38-3.19,1.21-3.59,2.72,0,0,0,.08,0,.12l-13.88,12.77c-.56,1-.76,2.26.64,2.3-1.7.56-1.61,2.53-.37,3.63a2.13,2.13,0,0,0-.38,3.64c-2,.27-2.25,2.85-.7,4.44-2.28-.85-2.16,2.22-1.15,3.49-1.34-.46-4.31.51-2.62,2.57-1.37-.25-2.7-.72-3.52.66a1.72,1.72,0,0,0,1.16,2.82c-3.33.7-1.19,3.71,1.55,2.91-.69,1.83,1.72,3.14,3.1,2.09-.6,2.51,1.91,1.88,2.89,2.06.2,0,.69-.53,1.08-.45s.65,1,1,1.06c1,.18,1.3.68,2.18.19-1,2.22,2.86,2.27,4,1.18.32,1.8,2.4,2.62,3.45,1.07,1.17,1.15,2.07,1,2.75.09.64,1.55,2.46,2.48,3.58.65.45,1.6,3.25,3,3.81.7.74.9,3.47,2.24,4.15.91,0,1.52,2.3,1.6,3.2.34-.16,2.26,2.88,1.51,3-.53.46,2.15,2.55,1.67,2.76-.26.33,1.7,2.81,1.29,3.24-.16-.18,1.17,1.31,1.88,2.16,1.6a2.74,2.74,0,0,0,1.4-2.47c0,2.4,2.95,1.09,2.71-.58,1.33,1.77,3.11.68,2.76-1.56.56,1.52,2,1.24,2.61,0-.47,2.31,2.15,2.91,3.07.9-.16,1.06-.35,2.22,1,2.24,1.09.1,1.91-1.28,2.16-2.21.07,2.08,2.31,1.3,3,0a2.43,2.43,0,0,0,.21-.68,3.25,3.25,0,0,0,.56.28c.87.27,2.66-.27,1.64-1.44a5.3,5.3,0,0,0,2.78.84c.87-.14,1.77-1.12.82-1.55,1.22.37,5.15.88,3.41-1a3.36,3.36,0,0,0,2.77.94c.85-.27,1.85-1.51,1-2.32.85.37,1.68.85,2.34-.12a1.13,1.13,0,0,0-.42-1.82c1,0,2.34.44,3.28-.37,1.16-1,.57-1.74-.57-2.17,2.14-.15,2.56-2.15.37-3,1.41,0,2.93-2,1.14-2.74,1.25.34,2.88.86,3.36-.9,1,1.38,3.22,1.9,3.67-.3C228.31,261.94,230.7,263.36,230.56,261.05Z" transform="translate(-42.07 -53.06)"/><path class="cls-11" d="M175.64,246.06c0,1,1.23,1.82,2.76,1.82s2.75-.82,2.75-1.82-1.23-1.82-2.75-1.82S175.64,245.06,175.64,246.06Z" transform="translate(-42.07 -53.06)"/><path class="cls-11" d="M169.41,246.14c0,.39.71.7,1.59.7s1.6-.31,1.6-.7-.71-.69-1.6-.69S169.41,245.76,169.41,246.14Z" transform="translate(-42.07 -53.06)"/><path class="cls-11" d="M167.71,251.36c0,.65.74,1.19,1.65,1.19S171,252,171,251.36s-.73-1.19-1.64-1.19S167.71,250.7,167.71,251.36Z" transform="translate(-42.07 -53.06)"/><path class="cls-11" d="M171,258.51c0,.63.36,1.13.8,1.13s.8-.5.8-1.13-.35-1.13-.8-1.13S171,257.89,171,258.51Z" transform="translate(-42.07 -53.06)"/><path class="cls-11" d="M184.11,254.68c0,.22.61.4,1.36.4s1.36-.18,1.36-.4-.61-.4-1.36-.4S184.11,254.46,184.11,254.68Z" transform="translate(-42.07 -53.06)"/><path class="cls-11" d="M178.4,252.45c0,.44.81.79,1.82.79s1.81-.35,1.81-.79-.81-.79-1.81-.79S178.4,252,178.4,252.45Z" transform="translate(-42.07 -53.06)"/><path class="cls-11" d="M152.22,250.77c0,.93,1.09,1.68,2.44,1.68s2.44-.75,2.44-1.68-1.09-1.68-2.44-1.68S152.22,249.84,152.22,250.77Z" transform="translate(-42.07 -53.06)"/><path class="cls-11" d="M148,254.88c0,.11.29.2.64.2s.64-.09.64-.2-.29-.2-.64-.2S148,254.77,148,254.88Z" transform="translate(-42.07 -53.06)"/><path class="cls-11" d="M144.79,249.93c0,.46.72.84,1.6.84s1.6-.38,1.6-.84-.72-.84-1.6-.84S144.79,249.46,144.79,249.93Z" transform="translate(-42.07 -53.06)"/><path class="cls-11" d="M155.66,244.07c0,.76,1.11,1.38,2.48,1.38s2.48-.62,2.48-1.38-1.11-1.38-2.48-1.38S155.66,243.3,155.66,244.07Z" transform="translate(-42.07 -53.06)"/><path class="cls-11" d="M153.26,256.23c0,.63.72,1.15,1.6,1.15s1.6-.52,1.6-1.15-.71-1.15-1.6-1.15S153.26,255.59,153.26,256.23Z" transform="translate(-42.07 -53.06)"/><path class="cls-11" d="M150.18,264.66c0,.87,1,1.57,2.24,1.57s2.24-.7,2.24-1.57-1-1.56-2.24-1.56S150.18,263.8,150.18,264.66Z" transform="translate(-42.07 -53.06)"/><path class="cls-11" d="M160.62,248a1.38,1.38,0,1,0,1.35-1.12A1.25,1.25,0,0,0,160.62,248Z" transform="translate(-42.07 -53.06)"/><path class="cls-11" d="M162.69,242.94a1.2,1.2,0,1,0,1.2-1.12A1.17,1.17,0,0,0,162.69,242.94Z" transform="translate(-42.07 -53.06)"/><path class="cls-11" d="M203,257.35c0,.61.77,1.11,1.71,1.11s1.7-.5,1.7-1.11-.76-1.12-1.7-1.12S203,256.73,203,257.35Z" transform="translate(-42.07 -53.06)"/><path class="cls-11" d="M198.18,256.19c0,.62.75,1.12,1.67,1.12s1.68-.5,1.68-1.12-.75-1.11-1.68-1.11S198.18,255.58,198.18,256.19Z" transform="translate(-42.07 -53.06)"/><path class="cls-11" d="M192.14,262c0,.61.67,1.12,1.5,1.12s1.5-.51,1.5-1.12-.67-1.13-1.5-1.13S192.14,261.36,192.14,262Z" transform="translate(-42.07 -53.06)"/><path class="cls-11" d="M196.1,268c0,.23.46.43,1,.43s1-.2,1-.43-.47-.44-1-.44S196.1,267.8,196.1,268Z" transform="translate(-42.07 -53.06)"/><path class="cls-11" d="M206,263.31c0,.52.82.94,1.84.94s1.83-.42,1.83-.94-.82-.95-1.83-.95S206,262.78,206,263.31Z" transform="translate(-42.07 -53.06)"/><path class="cls-11" d="M199.85,263.88c0,.43.71.78,1.57.78s1.57-.35,1.57-.78-.7-.78-1.57-.78S199.85,263.45,199.85,263.88Z" transform="translate(-42.07 -53.06)"/><path class="cls-11" d="M203,269.12c0,.37.67.66,1.5.66s1.49-.29,1.49-.66-.67-.65-1.49-.65S203,268.76,203,269.12Z" transform="translate(-42.07 -53.06)"/><path class="cls-11" d="M212.46,258.89c0,.84,1,1.52,2.32,1.52s2.32-.68,2.32-1.52-1-1.51-2.32-1.51S212.46,258.06,212.46,258.89Z" transform="translate(-42.07 -53.06)"/><path class="cls-11" d="M176.44,274.78c0,.53.84,1,1.89,1s1.89-.42,1.89-1-.85-.95-1.89-.95S176.44,274.26,176.44,274.78Z" transform="translate(-42.07 -53.06)"/><path class="cls-11" d="M184.11,273a1.07,1.07,0,1,0,1-.81A.95.95,0,0,0,184.11,273Z" transform="translate(-42.07 -53.06)"/><path class="cls-11" d="M180.22,269.45c0,.19.87.33,1.94.33s2-.14,2-.33-.87-.33-2-.33S180.22,269.27,180.22,269.45Z" transform="translate(-42.07 -53.06)"/><path class="cls-11" d="M171.8,267.7c0,.42.68.77,1.52.77s1.52-.35,1.52-.77-.68-.77-1.52-.77S171.8,267.28,171.8,267.7Z" transform="translate(-42.07 -53.06)"/><path class="cls-11" d="M168,272.62c0,.23.35.41.79.41s.79-.18.79-.41-.35-.4-.79-.4S168,272.4,168,272.62Z" transform="translate(-42.07 -53.06)"/><ellipse class="cls-11" cx="137.2" cy="208.92" rx="1.88" ry="1.12"/><path class="cls-11" d="M162.69,263.49c0,.21.27.39.6.39s.6-.18.6-.39-.27-.39-.6-.39S162.69,263.27,162.69,263.49Z" transform="translate(-42.07 -53.06)"/><path class="cls-11" d="M157.1,269.12c0,.37.47.66,1,.66s1-.29,1-.66-.47-.65-1-.65S157.1,268.76,157.1,269.12Z" transform="translate(-42.07 -53.06)"/><path class="cls-11" d="M156.46,259.87c0,.54.61,1,1.36,1s1.36-.44,1.36-1-.61-1-1.36-1S156.46,259.33,156.46,259.87Z" transform="translate(-42.07 -53.06)"/><path class="cls-11" d="M160.62,257.35a1.36,1.36,0,1,0,1.33-1.12A1.24,1.24,0,0,0,160.62,257.35Z" transform="translate(-42.07 -53.06)"/><path class="cls-11" d="M190,251.61c0,.46.81.84,1.81.84s1.81-.38,1.81-.84-.81-.84-1.81-.84S190,251.15,190,251.61Z" transform="translate(-42.07 -53.06)"/><path class="cls-11" d="M195.14,274.31c0,.26.45.47,1,.47s1-.21,1-.47-.45-.48-1-.48S195.14,274,195.14,274.31Z" transform="translate(-42.07 -53.06)"/><path class="cls-11" d="M191.83,272.42c0,.11.56.2,1.26.2s1.25-.09,1.25-.2-.56-.2-1.25-.2S191.83,272.31,191.83,272.42Z" transform="translate(-42.07 -53.06)"/><path class="cls-11" d="M210.32,269.12c0,.37.71.66,1.58.66s1.57-.29,1.57-.66-.7-.65-1.57-.65S210.32,268.76,210.32,269.12Z" transform="translate(-42.07 -53.06)"/><path class="cls-11" d="M159.18,273.92c0,.49.78.89,1.76.89s1.75-.4,1.75-.89-.78-.89-1.75-.89S159.18,273.42,159.18,273.92Z" transform="translate(-42.07 -53.06)"/><path class="cls-11" d="M148.63,272.22c0,.44.8.81,1.79.81s1.8-.37,1.8-.81-.81-.81-1.8-.81S148.63,271.77,148.63,272.22Z" transform="translate(-42.07 -53.06)"/><path class="cls-11" d="M141.6,263.88c0,.43.46.78,1,.78a.81.81,0,1,0,0-1.56C142.06,263.1,141.6,263.45,141.6,263.88Z" transform="translate(-42.07 -53.06)"/><path class="cls-11" d="M139,269c0,.27.57.49,1.28.49s1.28-.22,1.28-.49-.58-.49-1.28-.49S139,268.69,139,269Z" transform="translate(-42.07 -53.06)"/></g></g><g id="OBJECTS"><g class="cls-12"><path class="cls-9" d="M264.23,277.16c7.39-1.59,70.6-11.93,64.33,6.18-.93,2.67-2.47,2.67-.62,5,1.54,1.67,5.55,2,7.4,2.34,4.32.67,9.56,1,12,5.68,10.79,20.36-32.08,35.72-43.8,39.73-17.88,6-35.16,11.69-54,13a48.39,48.39,0,0,1-12-.33c-4.93-.67-7.4-2.67-11.41-5.34-6.79-4.68-16.65,1-24.37.66-7.09-.33-19.73-2.67-23.43-10.68-4.94-10.69,12.33-15.69,17.88-19.7,4.32-3.34.93-8,5.25-11.35a113,113,0,0,1,32.75-16.93C244.14,282.35,254.11,279.33,264.23,277.16Z" transform="translate(-42.07 -53.06)"/></g><path class="cls-13" d="M262.21,312.58c2.16.26,1.92,2.86,1.92,4.94,0,3.37.24,4.67-2.64,6-2.4.77-4.8,1.29-7,.52-1.2-.52-1.44-2.08-2.64-1.82-1.92.26-1.44,2.33-2.16,3.37-1.92,2.08-4.55,2.6-7.19,2.86a37,37,0,0,1-15.1-.52c-2.64-.78-6.72-4.15-4.56-8,1.68-2.85,7.43,0,10.31,0,3.84.26,7-1,10.31-2.59,2.88-1.3,5.75-3.64,9.11-3.38Z" transform="translate(-42.07 -53.06)"/><path class="cls-14" d="M264.61,267.68s-.72,16.09-1.2,24.14c-.24,2.86-.24,5.45-.24,8.31s1,4.93,1.2,7.78c.24,2.08.48,5.71-.72,7-1.44,1.82-5.52,2.34-7.67,2.6-1,.26-2.88-.26-4.08.26-1.44.51-2.64,2.33-4.31,3.11-2.64,1.3-6.24,1.56-9.12,1.56-4.79,0-14.37-.57-15.1-3.38-.42-7.74,3.84-8.82,8.63-10.9,2.4-1.3,5.52-1.56,7.19-4.15,1.2-2.34,1-6,1.2-8.57.72-5.71,1-11.42,1.2-17.13.24-3.11-.24-13.49-.24-13.49Z" transform="translate(-42.07 -53.06)"/><path class="cls-13" d="M313.91,312.67c0,2.77.8,6.06.64,8.83a3.32,3.32,0,0,1-3.35,3.28c-2.56.35-2.72,0-4.48,2.43-2.88,4.15-5.43,6.4-10.39,6.75a56.85,56.85,0,0,1-10.87.34c-2.39-.34-6.87-.86-8.47-2.77-2.4-2.59-1.44-7.27,2.24-5.88,3.52,1.56,8.15,4,11.35.52,1.76-1.91,1.12-4.5,2.24-6.4,1.27-2.08,4-2.43,5.91-3.12Z" transform="translate(-42.07 -53.06)"/><path class="cls-14" d="M311.83,265.26c0,8,.16,15.92.48,23.71.16,4.15.64,8.13.64,12.11,0,4.15,1.44,7.27,1.44,11.25,0,.86.48,4,0,4.67-.8,1.21-3.35.86-4.47,1.38-1.76.87-2.56,3.12-3.84,4.85a18.6,18.6,0,0,1-4.63,4.32c-6.4,4.33-13.75,4-20.78,1.56a9.59,9.59,0,0,1-4.16-3.14c-.83-7.07,2.72-8.45,6.4-10.53,3.51-1.9,8-4.15,8.79-8.83.8-4.15,0-9.16-.32-13.32-.64-9.34-.8-19-2.08-28.38Z" transform="translate(-42.07 -53.06)"/><path class="cls-15" d="M311.36,174.5c-2.4,12.46-1.44,25.7-1.44,38.42,0,5.45.24,10.64.24,16.09.24,2.59.48,5.19.48,7.78,0,4.42,1.43,4.42,3.35,8.05,2.88,6-3.83,9.09-1.2,14.54,1.44,3.11,3.84,4.67.48,7.52a16,16,0,0,1-7.67,2.6,46,46,0,0,1-15.82-.78c-2.88-.78-5.52-1.56-4.32-5.19.24-1,1.92-2.34,1.68-3.38-.48-1.81-2.88-1.81-3.12-3.89-.24-2.59,2.64-3.89,2.4-6.75-.24-1.81-1.92-4.67-2.4-6.75-1.19-5.19-5.15-40.49-6.59-44.38,0,0-10.67,52.43-10.67,53.73.24,2.59,1.2,1.3,2.4,3.11,1.2,1.56,1.2,2.6,0,3.9-1.44,1.81-2.16-.26-1.68,2.59.48,3.64,3.12,4.67-1.2,6.75-4.55,2.34-10.54,1.82-15.34,1.3-3.35-.26-13.18.52-14.38-4.15-.72-3.12,3.11-4.68,2.63-7.79-.24-1.56-1.43-1.82-.95-3.89.47-1.82,2.63-2.34,3.59-4.16,1.68-4.15.48-11.94.72-16.35a100.32,100.32,0,0,1,2.88-16.61c1.44-5.19,1.2-10.38,1.68-15.83.95-10.39,3.35-20.77,5.27-30.89Z" transform="translate(-42.07 -53.06)"/><path class="cls-16" d="M291.7,249.77a30.6,30.6,0,0,0,8.12,1,72.33,72.33,0,0,1,8.3.32,52.56,52.56,0,0,1-8.32.68,23,23,0,0,1-4.19-.45A11.4,11.4,0,0,1,291.7,249.77Z" transform="translate(-42.07 -53.06)"/><path class="cls-16" d="M307.4,254.44a3.78,3.78,0,0,1-1.83,1.44,13.67,13.67,0,0,1-2.25.71c-1.53.35-3.11.53-4.63.74h0c-3.14.18-6.27,0-9.34.15l.42-.44a1.22,1.22,0,0,0,.56.87,5.32,5.32,0,0,0,1.15.66,15,15,0,0,0,2.69.84,19.74,19.74,0,0,0,5.64.42,30.29,30.29,0,0,0,5.63-.88,10.68,10.68,0,0,1,1.48-.36,2.43,2.43,0,0,1,.89,0,1.12,1.12,0,0,1,.79.83,1.46,1.46,0,0,1-.19,1,3.08,3.08,0,0,1-.5.67,5,5,0,0,1-1.25,1l0,0a14.62,14.62,0,0,1-7.24,2.27,29.79,29.79,0,0,1-7.49-.52,33.74,33.74,0,0,0,7.45,0,14.15,14.15,0,0,0,6.82-2.42h0l0,0a4.47,4.47,0,0,0,1-.84c.3-.3.52-.73.46-.89s-.12-.2-.15-.18a1.51,1.51,0,0,0-.55,0,10.26,10.26,0,0,0-1.35.34,30.52,30.52,0,0,1-5.83,1,18.69,18.69,0,0,1-5.91-.48,15.56,15.56,0,0,1-2.85-.93,5.85,5.85,0,0,1-1.35-.8,2.1,2.1,0,0,1-.87-1.56v-.42l.42,0c3.16-.13,6.26.23,9.36.15h0c1.57-.16,3.11-.24,4.64-.49a12.14,12.14,0,0,0,2.25-.56A3.72,3.72,0,0,0,307.4,254.44Z" transform="translate(-42.07 -53.06)"/><path class="cls-16" d="M246,249.64a44.34,44.34,0,0,0,9.74,1.92h0a16.21,16.21,0,0,0,2,.15c.69,0,1.38.06,2.07.15a7.83,7.83,0,0,1,2.09.49,3.16,3.16,0,0,1,1.73,1.52l.19.42-.43.16a16.28,16.28,0,0,1-5.53.82,49,49,0,0,0-5.43.23c-1.84.15-3.65.16-5.4.46a9.27,9.27,0,0,0-2.48.75c-.19.09-.38.21-.55.31s-.32.27-.27.2,0,0,.18.12a4.19,4.19,0,0,0,.51.37l0,0a20.78,20.78,0,0,0,4.54,1.44c1.61.45,3.12,1,4.7,1.35a12.35,12.35,0,0,0,4.77.23,38.89,38.89,0,0,1,4.84-.69c-1.63.18-3.18.69-4.79,1a11.26,11.26,0,0,1-2.47.27,14.58,14.58,0,0,1-2.47-.26c-1.62-.3-3.21-.81-4.76-1.18a18.61,18.61,0,0,1-4.78-1.41h0a5.59,5.59,0,0,1-.6-.43,1.58,1.58,0,0,1-.31-.32.83.83,0,0,1-.18-.67,1.41,1.41,0,0,1,.66-.77c.21-.13.41-.25.63-.36a10.11,10.11,0,0,1,2.72-.86,47.54,47.54,0,0,1,5.49-.52,50.52,50.52,0,0,1,5.49-.18,15.41,15.41,0,0,0,5.24-.68l-.23.57a2.49,2.49,0,0,0-1.27-1.13,7.48,7.48,0,0,0-1.87-.52c-.66-.1-1.33-.15-2-.21a19,19,0,0,1-2.07-.23h0a45.38,45.38,0,0,1-4.92-.93A29,29,0,0,1,246,249.64Z" transform="translate(-42.07 -53.06)"/><path class="cls-16" d="M262.81,262.88a10.55,10.55,0,0,1-5,1.45c-1.74.13-3.42.27-5.18.35a22.68,22.68,0,0,1-5.26-.35,11.59,11.59,0,0,1-4.8-2.1c3.18,1.47,6.61,1.58,10,1.46l2.58-.11c.88,0,1.75,0,2.6,0A14.47,14.47,0,0,0,262.81,262.88Z" transform="translate(-42.07 -53.06)"/><path class="cls-17" d="M229.75,144.06s-.07,23.11-1.34,25.77c-4.27,8.91-13.75,24-16.95,31.23-3.19,6.23,2.88,14.88-6.71,17.31-3.2.69-8.63-.35-8.95-4.5-.32-3.81,3.52-5.89,5.11-9,3.2-6.23,13.34-32,14.62-38.54s1.37-17.87,1.37-24.45Z" transform="translate(-42.07 -53.06)"/><path class="cls-18" d="M227.83,104.46c-6.94,9.74-10.69,15-11.65,24.88-.24,3.37,0,5.19-1.68,8a24.29,24.29,0,0,0-2.88,4.15c-1,2.33-1.43,1.56.48,3.37,3.36,3.38,12.23,3.64,16.79,3.9a51.81,51.81,0,0,0,6.47.26c.24-1.82-.48-3.12-.48-4.68a16.42,16.42,0,0,1,1.2-4.93,66.08,66.08,0,0,0,.48-9.6Z" transform="translate(-42.07 -53.06)"/><path class="cls-19" d="M220.07,136.25l2.9.66c1,.22,1.94.42,2.9.71a19.68,19.68,0,0,1,2.83,1,8.28,8.28,0,0,1,2.56,1.75l.42.45-.59.23a16.25,16.25,0,0,1-6.86.68,25.55,25.55,0,0,0-6.61.11l.37-.52c0,.26.58.66,1.13.86a11.16,11.16,0,0,0,1.84.54c1.26.27,2.6.51,3.88.75a18.87,18.87,0,0,0,3.9.28,10.16,10.16,0,0,0,3.8-.93,9.6,9.6,0,0,1-3.77,1.32,15.46,15.46,0,0,1-4,0c-1.33-.17-2.62-.32-4-.55a13.27,13.27,0,0,1-2-.52,4.55,4.55,0,0,1-1-.49,1.65,1.65,0,0,1-.77-1.11l-.06-.42.43-.1a24.05,24.05,0,0,1,6.87-.16,16.43,16.43,0,0,0,6.51-.49l-.17.68a7.61,7.61,0,0,0-2.23-1.71,20.59,20.59,0,0,0-2.68-1.15c-.93-.32-1.87-.64-2.81-.94S221,136.6,220.07,136.25Z" transform="translate(-42.07 -53.06)"/><path class="cls-19" d="M315.35,174.59c-1.6.86-3.83,1-5.75,1.38a55.81,55.81,0,0,1-12,1.39c-9.75.34-19.82.69-29.57.17-6.71-.35-12.94-3.11-19.5-4.33.48-4,4.48-7.44,5.12-11.59.64-2.94-2.24-1.73-3.52-4.15s1.28-4.85,2.56-6.58c1.92-2.59-.64-3.46-2.72-5.19-1.92-1.56-3.67-3.11-5.59-4.67-3.68-2.94-6.71-6.4-10.07-9.52-5.76-5.19-14.39-12.46-10.07-21.28,4.31-8.65,12.31-15.92,21.26-17.65,8.15-1.56,17.1,0,24.93,2.25,8.15,2.42,15.5,6.14,21.9,12.72,6.23,6.74,11.5,12.89,14.7,21.71a128.83,128.83,0,0,1,4.32,12.46,35.56,35.56,0,0,1,1.11,5.88c.32,2.77,1.28,3.64,2.56,5.89,2.24,3.8-1.6,6.05-1.12,9.86.32,2.08,1.44,5.19,1.76,6.92Z" transform="translate(-42.07 -53.06)"/><path class="cls-20" d="M241,119.56c1.6.69,2.4,1.73,4,2.25,3.51.87,6.55.69,9.59-1.56,7.51-5.53,5.59-20.07-3.2-22.84A12.13,12.13,0,0,0,238,102.09a12.55,12.55,0,0,0-1.92,7.61c.16,1.9.8,6.06,2.55,6.92Z" transform="translate(-42.07 -53.06)"/><path class="cls-18" d="M260.21,151.06c5.75,1.83,11.82,1.85,17.78,1.63,3-.1,6-.26,9-.31,1.5,0,3,0,4.52,0,.75,0,1.51.1,2.26.14s1.47,0,2.23.08a5.25,5.25,0,0,1,2.37.57,1.76,1.76,0,0,1,.82,1.17,1.82,1.82,0,0,1,0,.7,2.09,2.09,0,0,1-.21.67,4,4,0,0,1-1.91,1.58,12.25,12.25,0,0,1-2.2.77,48.33,48.33,0,0,1-9,1.16,101.53,101.53,0,0,1-18-.63h0a37.29,37.29,0,0,0-6.37-1,4.72,4.72,0,0,0-2.84.53,1,1,0,0,0-.27,1,2.3,2.3,0,0,0,.7,1.15,8.27,8.27,0,0,0,2.67,1.54,24.13,24.13,0,0,0,3.06,1c2.1.51,4.23.86,6.4,1.18h0a58.86,58.86,0,0,0,15.52,1.34,31,31,0,0,0,7.68-1.25c2.52-.69,5-1.51,7.56-2.14-2.52.73-5,1.64-7.49,2.39a31.73,31.73,0,0,1-7.74,1.48A59.69,59.69,0,0,1,271,164.75h0a60.48,60.48,0,0,1-6.48-1.1,24.18,24.18,0,0,1-3.18-1,8.86,8.86,0,0,1-3-1.71,3.1,3.1,0,0,1-1-1.59,2.33,2.33,0,0,1,0-1,1.78,1.78,0,0,1,.57-.91,3.45,3.45,0,0,1,1.74-.68,9.89,9.89,0,0,1,1.71-.08,38.06,38.06,0,0,1,6.54,1h0a110,110,0,0,0,17.87.65,47.91,47.91,0,0,0,8.83-1.08,12.58,12.58,0,0,0,2-.7,3.16,3.16,0,0,0,1.52-1.19,1.31,1.31,0,0,0,.14-.82.87.87,0,0,0-.42-.6,4.93,4.93,0,0,0-2-.47c-.73-.06-1.47,0-2.26-.11l-2.22-.18c-1.49-.08-3-.12-4.48-.12-3,0-6,.12-9,.16C272,153.28,265.89,153.12,260.21,151.06Z" transform="translate(-42.07 -53.06)"/><path class="cls-17" d="M285,142.4c-.8,7.79-.64,15.75-.64,23.54,0,1.55.32,3.63,0,5-.48,2.08-2.07,3.47-3.51,4.85a53.37,53.37,0,0,1-9.11,8.13c-6.23,4.33-12.47,9.69-19.18,13.15-2.56,1.39-7.67.87-5.75-3.46,1.75-3.8,6.55-6.92,9.26-9.69,3.52-3.46,6.4-7.27,10.07-10.55a31.83,31.83,0,0,0,4.64-4.85c1.28-1.73,1-2.94.8-5.19-.32-7.09,0-14,0-21.11Z" transform="translate(-42.07 -53.06)"/><path class="cls-17" d="M252.38,188.26a23.12,23.12,0,0,1-5.27,2.94c-2.4.87-6.72-.35-8.48,1.56-1.28,1.55-.95,3.8-1.91,5.36-.48.87-3.2,3.63-2.56,4.85.8,1,8.79-1.73,10.07-2.25,1.44-.52,6.87-2.25,7-3.64Z" transform="translate(-42.07 -53.06)"/><path class="cls-21" d="M118.76,241.55s131.69-43.94,155.35-53c1.81-.68,4.18-1,5.47.85,1.38,2,1.37,6.09-.87,7.23-1.87,1-4.4,1-6.4,1.66l-10.57,3.44-32.05,10.49-38.52,12.64q-19.15,6.3-38.28,12.63-14.34,4.77-28.68,9.61l-2.89,1S116.53,248.82,118.76,241.55Z" transform="translate(-42.07 -53.06)"/><path class="cls-22" d="M93.79,290.65c.24-3.37,2.64-25.56,3-31.53a48.16,48.16,0,0,1,1.56-8.31,7.93,7.93,0,0,1,1.29-3.29c1.51-2.63,4.45-3.33,6.9-4.41,1.67-.69,3.27-1.38,4.95-2.16,1.84-.78,3.76-2.25,5.68-2.77,3.35-.87,6.39,4.67,6.79,7.7.16,1.64.16,5.28-1.2,6.49a9.52,9.52,0,0,1-2.32.86c-.72.26-1.44.7-2.24,1-1.83.72-4.27,1.74-5.49,3.56,1,11.12,2.93,28.9,3.53,34.43.12,1.29.57,4.8-1,5.19s-2.46-.69-3-1.78c-.84-1.68-.6-30.23-4.91-30-1.75.1-.6,19.59-1.08,27.64-.11,1.82.24,2.72-1.56,2.85s-1.92-.78-2.16-2.59c-.84-7,.7-27.43-2.52-27.9-2.29-.35-2.15,22.71-2.39,26.08-.12,2.08-.1,3.92-2.76,3.12C93.15,294.29,93.67,292.6,93.79,290.65Z" transform="translate(-42.07 -53.06)"/><path class="cls-17" d="M208.86,220.87a23.32,23.32,0,0,1,.42-2.85c.3-1.39,1.7-2.34,2.67-1.48s.24,4.24-.55,5.11c-.61.69-2.48,1.3-2.91.09Z" transform="translate(-42.07 -53.06)"/><path class="cls-23" d="M208.86,220.87c0-.65,0-1.29,0-2,0-.32.07-.66.12-1a2.73,2.73,0,0,1,.36-1,2.14,2.14,0,0,1,2-1.16,1.69,1.69,0,0,1,1.14.6,2.38,2.38,0,0,1,.45,1.13,6.69,6.69,0,0,1-.87,4,2.17,2.17,0,0,1-.82.8,3.14,3.14,0,0,1-1,.36,2,2,0,0,1-1.09-.07,1.15,1.15,0,0,1-.72-.81l0-.06,0,0C208.53,221.42,208.69,221.15,208.86,220.87Zm0,0c-.08.3-.16.61-.25.91v-.08c.27.55.9.54,1.43.36a2.05,2.05,0,0,0,1.24-1,7.14,7.14,0,0,0,.63-3.45,1.38,1.38,0,0,0-.22-.65.92.92,0,0,0-.5-.3,1.41,1.41,0,0,0-1.22.66,2.67,2.67,0,0,0-.39.75c-.1.3-.18.6-.26.9C209.14,219.61,209,220.25,208.86,220.87Z" transform="translate(-42.07 -53.06)"/><path class="cls-17" d="M204.43,223.21a2.29,2.29,0,0,0,2.06,1.21c1.82.08,2-1.65,2.37-3.81.18-1.3.78-4,0-4.93-1-1.3-2.73-.69-3.34.69A17.09,17.09,0,0,0,205,218Z" transform="translate(-42.07 -53.06)"/><path class="cls-23" d="M204.43,223.21a2.54,2.54,0,0,0,.82.75,2.57,2.57,0,0,0,1.06.24,1.84,1.84,0,0,0,1-.19,1.48,1.48,0,0,0,.59-.73,8.82,8.82,0,0,0,.46-2.14l.3-2.27a8.81,8.81,0,0,0,.08-2.16,1.46,1.46,0,0,0-.31-.79,1.24,1.24,0,0,0-.68-.45,1.69,1.69,0,0,0-1.56.66,6.56,6.56,0,0,0-.79,2l0-.07C205.13,219.74,204.8,221.44,204.43,223.21Zm0,0c0-1.7.11-3.46.25-5.24v-.07a6.27,6.27,0,0,1,.78-2.3,2.53,2.53,0,0,1,2.45-1.08,2.29,2.29,0,0,1,1.78,2.06,9.22,9.22,0,0,1-.11,2.42l-.41,2.28a8.91,8.91,0,0,1-.7,2.3,2,2,0,0,1-.95.92,2.07,2.07,0,0,1-1.27.09,2.73,2.73,0,0,1-1.12-.45A2.28,2.28,0,0,1,204.43,223.21Z" transform="translate(-42.07 -53.06)"/><path class="cls-17" d="M199.76,224.24a4.66,4.66,0,0,0,3.16.7c2.18-.09,2.6-2.94,2.72-5.63.13-2,.67-4.41-1-5.19-1.39-.69-2.6-.78-3.21,1.47-.12.61-.18,1.21-.24,1.82Z" transform="translate(-42.07 -53.06)"/><path class="cls-23" d="M199.76,224.24a4.33,4.33,0,0,0,2.6.53,3.64,3.64,0,0,0,1.24-.26,2,2,0,0,0,.83-.84,6.83,6.83,0,0,0,.64-2.5c.1-.88.09-1.77.17-2.72.13-1.78.41-3.78-1.36-4.14a1.19,1.19,0,0,0-1.7.63,3.24,3.24,0,0,0-.36,1.2l-.23,1.31v0C201,219.68,200.44,221.89,199.76,224.24Zm0,0c.3-2.2.67-4.54,1.09-6.91v0a8.45,8.45,0,0,1,.52-2.83,2.25,2.25,0,0,1,1.17-1.21,2.46,2.46,0,0,1,1.66.06,6.21,6.21,0,0,1,.69.29,2.47,2.47,0,0,1,.7.51,2.85,2.85,0,0,1,.66,1.49,11.76,11.76,0,0,1-.07,2.86C206,220.3,206,222.28,205,224a2.61,2.61,0,0,1-1.15,1,3.51,3.51,0,0,1-1.45.15A4.26,4.26,0,0,1,199.76,224.24Z" transform="translate(-42.07 -53.06)"/><path class="cls-17" d="M195.89,223.64c.18,1.38,2.24,1.3,2.91,1,1.93-.7,2.3-3.9,2.48-6.41a19.35,19.35,0,0,0,.3-3.71c-.12-1.13-.66-1.3-1.51-1.39-1.64-.09-2.43,2.16-3,4.07-.18.6-.24,1.38-.37,2.07Z" transform="translate(-42.07 -53.06)"/><path class="cls-23" d="M195.89,223.64a1.36,1.36,0,0,0,1.26,1,3,3,0,0,0,1.64-.23,3.67,3.67,0,0,0,1.64-2.74,26.23,26.23,0,0,0,.39-3.49,20.55,20.55,0,0,0,.27-3.48,1.61,1.61,0,0,0-.15-.66.61.61,0,0,0-.4-.3,1.38,1.38,0,0,0-1.29.16,6.58,6.58,0,0,0-1.64,2.83,7.34,7.34,0,0,0-.48,1.66c-.1.59-.22,1.19-.36,1.76C196.48,221.3,196.21,222.47,195.89,223.64Zm0,0c.1-1.18.26-2.37.4-3.56.08-.61.16-1.18.22-1.78a8.17,8.17,0,0,1,.37-1.82,11.62,11.62,0,0,1,.63-1.73,4.35,4.35,0,0,1,1.17-1.61,2.29,2.29,0,0,1,1-.44,3.43,3.43,0,0,1,1.08.1,1.59,1.59,0,0,1,1,.75,2.49,2.49,0,0,1,.29,1.06,19.05,19.05,0,0,1-.33,3.65,19.73,19.73,0,0,1-.59,3.6,6.71,6.71,0,0,1-.73,1.73,3,3,0,0,1-1.46,1.27,3.29,3.29,0,0,1-1.89,0,1.89,1.89,0,0,1-.83-.43A1.18,1.18,0,0,1,195.89,223.64Z" transform="translate(-42.07 -53.06)"/><path class="cls-17" d="M203,209.54a6.86,6.86,0,0,1-1.28,4.5c-1.59,2.08-3.83,2.42-6.23,2.42-.56,2.17-1,4.68-2.16,6.58-.4.69-1.36,1.81-2.31,1.12-.64-.52-.48-2.07-.48-2.85a20.5,20.5,0,0,1,1-4.93c.39-1.47.87-3.9,2-4.85,1.2-1.12,3-1.56,4.24-2.68A20.27,20.27,0,0,0,201,204.7" transform="translate(-42.07 -53.06)"/><path class="cls-23" d="M203,209.54a6.11,6.11,0,0,1-4.52,7,12.75,12.75,0,0,1-3,.37l.38-.3c-.3,1.35-.61,2.73-1,4.09a13.68,13.68,0,0,1-.78,2,4.76,4.76,0,0,1-1.39,1.85,1.73,1.73,0,0,1-1.38.31,1.43,1.43,0,0,1-.68-.37,1.6,1.6,0,0,1-.39-.63,6.39,6.39,0,0,1-.17-2.26,18.16,18.16,0,0,1,.7-4.23c.2-.7.4-1.33.57-2a17.16,17.16,0,0,1,.64-2,5.07,5.07,0,0,1,1.18-1.91,7.59,7.59,0,0,1,1.82-1.21c.63-.32,1.26-.6,1.84-.95a8.79,8.79,0,0,0,1.6-1.26,28.26,28.26,0,0,0,2.6-3.25,22.35,22.35,0,0,1-2.32,3.5,7.82,7.82,0,0,1-1.59,1.45c-.6.4-1.23.72-1.83,1.07-2.75,1.12-2.78,4.2-3.63,6.84a17.48,17.48,0,0,0-.61,4,6,6,0,0,0,.14,1.9c.13.43.52.53,1,.23a3.79,3.79,0,0,0,1.11-1.47,12.84,12.84,0,0,0,.76-1.87c.44-1.3.73-2.66,1.12-4l.09-.3h.29a11.68,11.68,0,0,0,2.84-.21,5.39,5.39,0,0,0,2.48-1.21,5.83,5.83,0,0,0,1.65-2.28A6.8,6.8,0,0,0,203,209.54Z" transform="translate(-42.07 -53.06)"/><path class="cls-17" d="M240.39,198.64c2.4,1.9-.64,8.82-1.44,10.9-.48,1.56-1.43,3.12,0,4.33,1.44,1.38,3.52.34,4.48-.87.32-.52.8-2.07,1.12-2.25.48-.34,1.76.35,2.39.35a3.54,3.54,0,0,0,3.2-3.29c2.08.35,3,1.56,3.84-1a16.06,16.06,0,0,0,.32-4.84c0-2.08.16-7.1-1.92-8.13Z" transform="translate(-42.07 -53.06)"/><path class="cls-24" d="M293.61,144.13a13.19,13.19,0,0,1-.16-2.59c0-2.77-.95-3.29-2.07-5.54s-.48-5.19-.48-7.61a51,51,0,0,0-.48-7.1c-.8-5-2.88-9-7-11.42-3.2-1.9-7.84-3.29-11.35-1.38-3.84,2.07-6.08,6.57-6.4,11.07-.15,1.73-.15,3.64-.15,5.54.15,2.08,1.27,3.81,1.27,5.71.16,1.56-.64,1.21-1.12,2.6-.31,1,.16,1.9.48,2.94.32.86,1.12,1.55,1,2.59s-1,1.39-1.28,2.43c-1.43,4.84,5.76,3.63,8.32,4a66.72,66.72,0,0,0,8.31.87c2.71,0,5.27-.87,8-1Z" transform="translate(-42.07 -53.06)"/><path class="cls-19" d="M289.3,140.15a10.19,10.19,0,0,1-4.82,2.17,36.32,36.32,0,0,1-5.26.58,27.61,27.61,0,0,1-5.3,0,9.94,9.94,0,0,1-2.62-.64,5,5,0,0,1-2.14-1.58,5.41,5.41,0,0,0,2.3,1.11,12.53,12.53,0,0,0,2.53.34,47.45,47.45,0,0,0,5.17-.21c1.75-.09,3.48-.16,5.19-.36A13.5,13.5,0,0,0,289.3,140.15Z" transform="translate(-42.07 -53.06)"/><path class="cls-19" d="M272.36,138.6c3.36-.17,6.77.15,10.06-.23a21.75,21.75,0,0,0,2.46-.4,5.69,5.69,0,0,0,2.15-.87,2.22,2.22,0,0,0,.58-.8c0-.12,0-.14,0-.18a.75.75,0,0,0-.34-.16,8.33,8.33,0,0,0-2.36-.07c-1.74.1-3.36.13-5.05.2-.83,0-1.69,0-2.49.07s-1.62.31-2.45.47a14.57,14.57,0,0,1-2.6.3,3.31,3.31,0,0,1-1.43-.28,3.65,3.65,0,0,1-.62-.45q-.13-.16-.27-.36a1.28,1.28,0,0,1-.12-.52,1.23,1.23,0,0,1,.46-.83,3.26,3.26,0,0,1,.61-.41,7.85,7.85,0,0,1,1.24-.47,18.41,18.41,0,0,1,2.53-.55h0a33,33,0,0,1,5.44-.87c.94,0,1.85,0,2.76.05l2.74.12-2.74.11c-.91,0-1.83,0-2.72.14a39.47,39.47,0,0,0-5.33,1.12h0a16.13,16.13,0,0,0-2.39.62,7.25,7.25,0,0,0-1.1.46c-.33.16-.62.46-.6.53s0,0,0,.08a.49.49,0,0,1,.11.14,2.3,2.3,0,0,0,.41.28,2.5,2.5,0,0,0,1,.17,13.74,13.74,0,0,0,2.42-.32c.82-.16,1.62-.37,2.5-.51s1.71-.08,2.56-.11c1.68,0,3.43,0,5.06-.12a9,9,0,0,1,2.66.14,1.48,1.48,0,0,1,.75.44.87.87,0,0,1,.24.5,1.38,1.38,0,0,1-.05.5,2.94,2.94,0,0,1-.88,1.22,6.13,6.13,0,0,1-2.52.94,25.32,25.32,0,0,1-2.55.31C279.06,139.29,275.72,138.74,272.36,138.6Z" transform="translate(-42.07 -53.06)"/><path class="cls-21" d="M254.94,81.15c1.44.69,2.07,3.63,2.23,5.19a11.14,11.14,0,0,1-3.51,9.52c-5.28,5.19-14.71,6.57-21.58,7.26-4,.52-7.83,1.56-12,.7-4.31-.87-6.87-4.85-8.63-9,0,1.9,3.84,9.69,3,10.73-2.24,2.94-4.79-7.62-5-8.83A20.55,20.55,0,0,1,211.46,86c1.28-2.77,4-7.09,7.36-7.09Z" transform="translate(-42.07 -53.06)"/><path class="cls-17" d="M251.74,94.65c.64,1.38.48,3.46.64,5,.16,2.94.64,6.58-.16,9.52-1.28,3.46-4.32,7.61-6.55,10.38-2.08,2.94-4,5.3-7.67,4.26a20.78,20.78,0,0,1-9.76-6.68,11.17,11.17,0,0,1-2.39-5c-.64-2.42-1.6-3.11-3.36-5-5.75-6.23-9.27-14.7-4-22.66,7.35-11.25,31.64-11.6,33.56,5Z" transform="translate(-42.07 -53.06)"/><path class="cls-17" d="M251.3,88.85c1-.65,2.76-.52,4-.52,3,.13,5.15,1.69,5.63,4.93,1.2,7.4-4.08,9.73-9.35,9.73Z" transform="translate(-42.07 -53.06)"/><path class="cls-21" d="M253.46,85.47c0,3.9.72,7.53.72,11.42,0,1.43.24,2.47-1.08,3a2.53,2.53,0,0,1-3.24-1c-1.08-1.69-.84-4.8-1-6.88-1.79.91-5.27-.39-6.59-1.81-1.56-1.56-3.48-4.81-1-6.1,1.92-.91,4.44-.78,6.47-.91,1.68-.13,4.2.13,5.52-.39Z" transform="translate(-42.07 -53.06)"/><path class="cls-16" d="M234.52,74.05c-6.11.26-12.59.39-18.34-1.94a8,8,0,0,1-1.38-.8c.06-.3.11-.59.18-.89.72-3.63,1-8.05,2.64-11.42s3.83-4.93,7.19-4.41a38.65,38.65,0,0,0,4.08.65c1.67,0,3.35-.13,5.15-.13,4.08,0,8.15-2.6,12.23-2,3.23.52,4.55,3.5,5.15,6.88s.7,6.78,1.06,10.24a23.29,23.29,0,0,1-7.65,2.48A71.21,71.21,0,0,1,234.52,74.05Z" transform="translate(-42.07 -53.06)"/><path class="cls-25" d="M213.3,80.28c.76-3,.94-6,1.5-9a8,8,0,0,0,1.38.8c5.75,2.33,12.23,2.2,18.34,1.94a71.21,71.21,0,0,0,10.31-1.29,23.29,23.29,0,0,0,7.65-2.48A47.74,47.74,0,0,0,254.3,80l-1.92,2.21h-.12a33.05,33.05,0,0,1-8.63,1.82c-3.48.39-7.07,1.16-10.55,1.29a71.51,71.51,0,0,1-10.55-.26c-3.11-.38-7.19-.51-9.95-2.07Z" transform="translate(-42.07 -53.06)"/><path class="cls-26" d="M243,57.7a5.46,5.46,0,0,1-1.11,2.55,11,11,0,0,1-2,2,12.11,12.11,0,0,1-5.12,2.32,12.89,12.89,0,0,1-5.63-.14,11.72,11.72,0,0,1-2.61-1,11,11,0,0,1-2.23-1.65,14.34,14.34,0,0,0,5,1.92,14.52,14.52,0,0,0,5.26-.08,13.34,13.34,0,0,0,4.87-2,12.84,12.84,0,0,0,2.08-1.66A5.86,5.86,0,0,0,243,57.7Z" transform="translate(-42.07 -53.06)"/><path class="cls-15" d="M267.05,71.57a24.39,24.39,0,0,1-2,2.39c-6.25,5.62-16.3,6.7-24.06,7.52-8.48.89-17.47,1.34-25.91,0A62.51,62.51,0,0,1,208,79.89c-2.16-.65-4.8-1.81-6.95-1.81a2.79,2.79,0,0,0-2.88,2.2c-.48,2,.59,2.75,2,3.38,20.25,8.82,52.15,2.42,57,1A25.61,25.61,0,0,0,271.08,75c.84-1.17,2.16-3.76.72-5.06C270,68.27,268.42,69.85,267.05,71.57Z" transform="translate(-42.07 -53.06)"/><path class="cls-21" d="M235.5,93.86a3,3,0,0,0,1.6,1c1.06-.07.93-1.65.4-2.37A5.29,5.29,0,0,0,234,90.41c-1.26-.07-1.53,1.08-.53,1.8Z" transform="translate(-42.07 -53.06)"/><path class="cls-21" d="M221.25,97.77a3.38,3.38,0,0,1-.87,1.76c-.94.54-1.59-.88-1.49-1.79a5.91,5.91,0,0,1,2-3.78c1-.77,1.82.05,1.32,1.23Z" transform="translate(-42.07 -53.06)"/><path class="cls-23" d="M228.54,101.19a5.43,5.43,0,0,1,.65,2.09c.08.73.18,1.43.22,2.17a28.8,28.8,0,0,1-.12,4.36,7.34,7.34,0,0,0-.08,2,2,2,0,0,0,1,1.38,6.68,6.68,0,0,0,4,.92,6.86,6.86,0,0,1-2.18.33,5.16,5.16,0,0,1-2.2-.56,2.8,2.8,0,0,1-1.57-1.88,7.38,7.38,0,0,1,0-2.3c.15-1.42.27-2.83.34-4.26l.07-2.14A6.28,6.28,0,0,0,228.54,101.19Z" transform="translate(-42.07 -53.06)"/><path class="cls-27" d="M241.94,113.62c.13,1.86-.73,4.74-2.12,5.74a4.62,4.62,0,0,1-5.78-.64Z" transform="translate(-42.07 -53.06)"/><path class="cls-28" d="M235.81,101.68c.66,1.16,1.65,1.81,2.21,1.44s.47-1.62-.2-2.78-1.65-1.81-2.2-1.44S235.15,100.51,235.81,101.68Z" transform="translate(-42.07 -53.06)"/><path class="cls-28" d="M224.53,106.11c.66,1.16,1.65,1.81,2.21,1.44s.47-1.62-.2-2.78-1.65-1.81-2.2-1.44S223.87,104.94,224.53,106.11Z" transform="translate(-42.07 -53.06)"/><path class="cls-7" d="M405.71,354.64c0,.51,1.65.92,3.68.92s3.67-.41,3.67-.92-1.64-.92-3.67-.92S405.71,354.13,405.71,354.64Z" transform="translate(-42.07 -53.06)"/><path class="cls-7" d="M401.67,363.52c0,.77,1.34,1.39,3,1.39s3-.62,3-1.39-1.33-1.38-3-1.38S401.67,362.76,401.67,363.52Z" transform="translate(-42.07 -53.06)"/><path class="cls-7" d="M405.71,370.51c0,.6.82,1.1,1.84,1.1s1.84-.5,1.84-1.1-.83-1.1-1.84-1.1S405.71,369.9,405.71,370.51Z" transform="translate(-42.07 -53.06)"/><path class="cls-7" d="M411.11,361.27c0,.48,1.16.87,2.58.87s2.57-.39,2.57-.87-1.15-.86-2.57-.86S411.11,360.79,411.11,361.27Z" transform="translate(-42.07 -53.06)"/><path class="cls-7" d="M414.66,351.53c0,1.21,1.79,2.19,4,2.19s4-1,4-2.19-1.79-2.19-4-2.19S414.66,350.32,414.66,351.53Z" transform="translate(-42.07 -53.06)"/><path class="cls-7" d="M424.57,359.31c0,.6,1.5,1.1,3.36,1.1s3.35-.5,3.35-1.1-1.5-1.11-3.35-1.11S424.57,358.7,424.57,359.31Z" transform="translate(-42.07 -53.06)"/><path class="cls-7" d="M448.23,332c0,.58,1.43,1,3.19,1s3.2-.46,3.2-1-1.43-1-3.2-1S448.23,331.47,448.23,332Z" transform="translate(-42.07 -53.06)"/><path class="cls-7" d="M443.75,326.87c0,.42,1.22.76,2.72.76s2.71-.34,2.71-.76-1.21-.77-2.71-.77S443.75,326.45,443.75,326.87Z" transform="translate(-42.07 -53.06)"/><path class="cls-7" d="M452.86,324.83c0,.7.89,1.27,2,1.27s2-.57,2-1.27-.9-1.27-2-1.27S452.86,324.13,452.86,324.83Z" transform="translate(-42.07 -53.06)"/><path class="cls-7" d="M444.55,321c0,.47.57.85,1.28.85s1.28-.38,1.28-.85-.58-.85-1.28-.85S444.55,320.5,444.55,321Z" transform="translate(-42.07 -53.06)"/><ellipse class="cls-7" cx="404.39" cy="285.03" rx="2.72" ry="0.86"/><path class="cls-7" d="M456.06,337c0,.58.93,1,2.07,1s2.08-.47,2.08-1-.93-1.05-2.08-1.05S456.06,336.46,456.06,337Z" transform="translate(-42.07 -53.06)"/><ellipse class="cls-7" cx="417.1" cy="290.14" rx="2.32" ry="0.78"/><path class="cls-7" d="M440.7,348.56c0,.43.86.78,1.92.78s1.93-.35,1.93-.78-.86-.78-1.93-.78S440.7,348.13,440.7,348.56Z" transform="translate(-42.07 -53.06)"/><path class="cls-7" d="M440.7,313.22c0,.31.86.55,1.92.55s1.93-.24,1.93-.55-.86-.55-1.93-.55S440.7,312.92,440.7,313.22Z" transform="translate(-42.07 -53.06)"/><path class="cls-7" d="M396.76,360.84c0,.24.43.43,1,.43s.95-.19.95-.43-.43-.43-.95-.43S396.76,360.6,396.76,360.84Z" transform="translate(-42.07 -53.06)"/><path class="cls-7" d="M405.71,385.07c0,.62,1.21,1.12,2.7,1.12s2.7-.5,2.7-1.12-1.21-1.13-2.7-1.13S405.71,384.44,405.71,385.07Z" transform="translate(-42.07 -53.06)"/><path class="cls-7" d="M315.55,380c0,.67,1,1.21,2.25,1.21S320,380.63,320,380s-1-1.21-2.24-1.21S315.55,379.29,315.55,380Z" transform="translate(-42.07 -53.06)"/><ellipse class="cls-7" cx="269.98" cy="324.66" rx="1.92" ry="1.04"/><path class="cls-7" d="M307.9,382.38c0,.38.93.7,2.07.7s2.08-.32,2.08-.7-.93-.69-2.08-.69S307.9,382,307.9,382.38Z" transform="translate(-42.07 -53.06)"/><path class="cls-7" d="M304.22,389.88c0,.54.82,1,1.84,1s1.84-.44,1.84-1-.83-1-1.84-1S304.22,389.33,304.22,389.88Z" transform="translate(-42.07 -53.06)"/><path class="cls-7" d="M298.79,388.32c0,.32.71.57,1.59.57s1.6-.25,1.6-.57-.71-.57-1.6-.57S298.79,388,298.79,388.32Z" transform="translate(-42.07 -53.06)"/><ellipse class="cls-7" cx="261.99" cy="347.15" rx="2.72" ry="1.21"/><path class="cls-7" d="M297.19,382.12c0,.53.93,1,2.08,1s2.07-.43,2.07-1-.93-.95-2.07-.95S297.19,381.6,297.19,382.12Z" transform="translate(-42.07 -53.06)"/><path class="cls-7" d="M314,411.91c0,.61,1,1.1,2.24,1.1s2.23-.49,2.23-1.1-1-1.11-2.23-1.11S314,411.3,314,411.91Z" transform="translate(-42.07 -53.06)"/><ellipse class="cls-7" cx="268.22" cy="356.95" rx="1.76" ry="0.8"/><ellipse class="cls-7" cx="265.58" cy="363.59" rx="0.88" ry="0.52"/><ellipse class="cls-7" cx="363.4" cy="351.3" rx="2.16" ry="1.04"/><path class="cls-7" d="M402.67,399.6c0,.34.9.61,2,.61s2-.27,2-.61-.89-.61-2-.61S402.67,399.27,402.67,399.6Z" transform="translate(-42.07 -53.06)"/><ellipse class="cls-7" cx="369.46" cy="343.78" rx="2.15" ry="0.78"/><path class="cls-7" d="M405.71,392.94c0,.29.41.52.92.52s.92-.23.92-.52-.41-.52-.92-.52S405.71,392.65,405.71,392.94Z" transform="translate(-42.07 -53.06)"/><path class="cls-7" d="M421.21,388.47c0,.78,1.11,1.41,2.48,1.41s2.48-.63,2.48-1.41-1.11-1.42-2.48-1.42S421.21,387.69,421.21,388.47Z" transform="translate(-42.07 -53.06)"/><path class="cls-7" d="M384,414.05c0,.57,1.11,1,2.48,1s2.48-.47,2.48-1-1.11-1-2.48-1S384,413.47,384,414.05Z" transform="translate(-42.07 -53.06)"/><path class="cls-7" d="M378.22,418.12c0,.52,1,.95,2.24.95s2.24-.43,2.24-.95-1-1-2.24-1S378.22,417.59,378.22,418.12Z" transform="translate(-42.07 -53.06)"/><path class="cls-7" d="M373.11,414.57c0,.28.6.52,1.35.52s1.36-.24,1.36-.52-.61-.52-1.36-.52S373.11,414.28,373.11,414.57Z" transform="translate(-42.07 -53.06)"/><path class="cls-7" d="M362.4,424.17c0,.62,1.21,1.13,2.71,1.13s2.72-.51,2.72-1.13-1.21-1.12-2.72-1.12S362.4,423.55,362.4,424.17Z" transform="translate(-42.07 -53.06)"/><path class="cls-7" d="M352.65,416.64c0,.29.82.52,1.84.52s1.83-.23,1.83-.52-.82-.52-1.83-.52S352.65,416.36,352.65,416.64Z" transform="translate(-42.07 -53.06)"/><path class="cls-7" d="M349.45,421.14c0,.48.72.87,1.6.87s1.6-.39,1.6-.87-.72-.86-1.6-.86S349.45,420.67,349.45,421.14Z" transform="translate(-42.07 -53.06)"/><path class="cls-7" d="M338.1,417.12c0,.55.83,1,1.84,1s1.84-.45,1.84-1-.82-1-1.84-1S338.1,416.57,338.1,417.12Z" transform="translate(-42.07 -53.06)"/><ellipse class="cls-7" cx="287.56" cy="360.47" rx="1.92" ry="0.52"/><path class="cls-7" d="M325.76,417.12c0,.55.87,1,1.94,1s1.93-.45,1.93-1-.86-1-1.93-1S325.76,416.57,325.76,417.12Z" transform="translate(-42.07 -53.06)"/><path class="cls-7" d="M320,418.12c0,.52,1,.95,2.32.95s2.32-.43,2.32-.95-1-1-2.32-1S320,417.59,320,418.12Z" transform="translate(-42.07 -53.06)"/><path class="cls-7" d="M353.61,419.63c0,.84,1.42,1.51,3.17,1.51s3.18-.67,3.18-1.51-1.43-1.51-3.18-1.51S353.61,418.79,353.61,419.63Z" transform="translate(-42.07 -53.06)"/><path class="cls-9" d="M435.78,277c0,14-.72,27.77,2.39,41.53,1.2,5.71,3.6,12.2,0,17.39-4.07,5.45-10.54,6.23-16.3,7.27a179.07,179.07,0,0,1-37.16,3.63c-6.95,0-29.25-2.86-27.33-14.79,1-6.75,8.15-10.13,7.91-17.4-.24-3.11-1.91-6-2.39-8.82-.24-3.11.48-5.71,1.19-8.57,1.68-6,.24-11.68.48-17.65.24-6.22-.72-11.42,6.48-11.16.48,0,1.2.26,1.91.26Z" transform="translate(-42.07 -53.06)"/><path class="cls-8" d="M372,256.25c5.27.78,6.95.26,11.5-2.59,6-4.15,12.95-4.67,19.66-2.86a75.18,75.18,0,0,0,18.7,2.08c4.56,0,12.71.26,16.3,3.37,4.08,3.64,1,11.43,1.68,16.62.24,2.59,1.44,5.71.48,8.3-1.44,3.12-5.51,5.19-8.15,6.75-10.79,6.75-25.41,8.31-37.16,3.63-5.51-2.07-11-6.48-17-5.71-4.08.26-10.79,3.12-13.67-.51-3.11-3.64-.95-11.43-.95-16.1,0-3.63-.48-10.64,2.87-12.72.65-.69,2.47-.26,3.31-.26A20,20,0,0,1,372,256.25Z" transform="translate(-42.07 -53.06)"/><path class="cls-9" d="M368.49,258.16c-2.42-.52-2.72,2.16-2.24,3.2,1,2.85,4.8,2.16,6.95,2.42,5,1,9.59,1.82,14.63,3.9,3.12,1,6.47,1,9.59,1.55,3.36.26,6.71,1.56,9.83,2.08a28.21,28.21,0,0,0,17.26-2.86c2.64-1.29,13.66-7.52,10.31-11.68-1.92-2.33-11.27-1.29-14.39-1.29a52.41,52.41,0,0,1-12.7-1c-5-.78-9.35-2.6-14.63-1.3-6.23,1.3-10.47,6-16.94,6Z" transform="translate(-42.07 -53.06)"/><g class="cls-29"><path class="cls-7" d="M370.33,263.25c-.84-.84-1-3.63.48-3.21-.12-1.4,0-3.07,1.68-2.37-.48-1.54,1.31-2.79,2.27-1.82.36-1,1.32-.56,1.92,0,.24.42-.12,1.12.12,1.4s.84-.14,1.08.14c.48.69.48,1.81.84,2.23.6.56,1.56-.28,1.68,1.25-.24-1.67,1.08-2.79,2-1.39a1.21,1.21,0,0,1,2-1.26c-.48-.83-.24-3.34.84-2.09-1.08-1.25-.36-3.9,1.32-2.37-.12-2.23,2.64-2.51,3-.56-.36-2.23,3.11-2.93,2.75-.14.12-1.39,1.32-2.65,2.16-1.25-.72-1.26.24-3.77,1.56-2.23-.48-1.82,1.56-4.05,2-1.82.36-1.11,2.28-1.11,2.87-.28s.48,1.82.48,2.79c.08-1.46,1.51-1.36,2.54-.68.3-1.13,1-1.83,1.42-.57.24-2.79,2.88-3.21,3.24-.28.48-2.65,2.75-.14,2.87,1.39,1.68-1.95,2.52.42,2.76,2.1.36-1.4,2-2.65,3-1.12.12-1.4,2-2.09,2.39-.56,0-2.09,2.88-2.93,2.76-.84,1.56-2.09,3.6-.13,3.12,2,2.16-.84,2.64.83,1.92,3.07,1.2-.7,3.59-.28,2.51,1.81,1.08-.84,4.08.28,2.52,2.09,1.2-.42,3.24.28,3,2.1l-5.76,7.53c-6.47,5-16.06,7.67-23.73,6.27a4.38,4.38,0,0,1-.9-.23,18.76,18.76,0,0,1-4,1.63A17,17,0,0,1,390,275.1,51.92,51.92,0,0,0,378.84,272c-2.52-.55-7.55-1.81-7.19-5.86a1.44,1.44,0,0,1-.12.7C370.21,266.73,369.25,263.94,370.33,263.25Z" transform="translate(-42.07 -53.06)"/><path class="cls-11" d="M423.87,257.73c0,.47.64.86,1.44.86s1.44-.39,1.44-.86-.65-.87-1.44-.87S423.87,257.25,423.87,257.73Z" transform="translate(-42.07 -53.06)"/><ellipse class="cls-11" cx="379.8" cy="203.16" rx="1.44" ry="1.17"/><ellipse class="cls-11" cx="375.48" cy="208.65" rx="1.68" ry="1.3"/><ellipse class="cls-11" cx="370.25" cy="202.54" rx="1.08" ry="0.55"/><path class="cls-11" d="M400.75,254.6c0,.86,1.1,1.55,2.45,1.55s2.45-.69,2.45-1.55-1.1-1.55-2.45-1.55S400.75,253.75,400.75,254.6Z" transform="translate(-42.07 -53.06)"/><path class="cls-11" d="M401.25,261.06c0,.35.44.65,1,.65s1-.3,1-.65-.43-.65-1-.65S401.25,260.7,401.25,261.06Z" transform="translate(-42.07 -53.06)"/><path class="cls-11" d="M392.14,258.31a2,2,0,1,0,2-2.1A2.07,2.07,0,0,0,392.14,258.31Z" transform="translate(-42.07 -53.06)"/><ellipse class="cls-11" cx="353.13" cy="208.72" rx="1.02" ry="0.71"/><path class="cls-11" d="M388.71,256c0,.5.68.91,1.52.91s1.51-.41,1.51-.91-.68-.91-1.51-.91S388.71,255.45,388.71,256Z" transform="translate(-42.07 -53.06)"/><path class="cls-11" d="M419.64,264.39c0,.57.94,1,2.11,1s2.12-.47,2.12-1-.95-1-2.12-1S419.64,263.81,419.64,264.39Z" transform="translate(-42.07 -53.06)"/><path class="cls-11" d="M408.21,265.69c0,.47.92.86,2.06.86s2.05-.39,2.05-.86-.92-.87-2.05-.87S408.21,265.21,408.21,265.69Z" transform="translate(-42.07 -53.06)"/><path class="cls-11" d="M408.21,260.56c0,.27.46.5,1,.5s1-.23,1-.5-.47-.5-1-.5S408.21,260.29,408.21,260.56Z" transform="translate(-42.07 -53.06)"/><ellipse class="cls-11" cx="360.38" cy="212.41" rx="1.2" ry="0.65"/><path class="cls-11" d="M385.35,261.35c0,.44.65.79,1.44.79s1.44-.35,1.44-.79-.65-.79-1.44-.79S385.35,260.91,385.35,261.35Z" transform="translate(-42.07 -53.06)"/><path class="cls-11" d="M379.28,262.74c0,.34.71.61,1.6.61s1.59-.27,1.59-.61-.71-.6-1.59-.6S379.28,262.41,379.28,262.74Z" transform="translate(-42.07 -53.06)"/><path class="cls-11" d="M429.3,261.6c0,.3.58.54,1.28.54s1.28-.24,1.28-.54-.57-.54-1.28-.54S429.3,261.3,429.3,261.6Z" transform="translate(-42.07 -53.06)"/><path class="cls-11" d="M428.35,259.85c0,.11.32.21.71.21s.72-.1.72-.21-.32-.22-.72-.22S428.35,259.73,428.35,259.85Z" transform="translate(-42.07 -53.06)"/><path class="cls-11" d="M414.84,268.32c0,.31.61.57,1.36.57s1.36-.26,1.36-.57-.61-.56-1.36-.56S414.84,268,414.84,268.32Z" transform="translate(-42.07 -53.06)"/><path class="cls-11" d="M422.75,261.92c0,.12.25.22.56.22s.56-.1.56-.22-.25-.21-.56-.21S422.75,261.8,422.75,261.92Z" transform="translate(-42.07 -53.06)"/><ellipse class="cls-11" cx="382.08" cy="212.85" rx="0.84" ry="0.22"/><path class="cls-11" d="M418.28,253.09c0,.22.3.4.68.4s.68-.18.68-.4-.31-.4-.68-.4S418.28,252.87,418.28,253.09Z" transform="translate(-42.07 -53.06)"/><path class="cls-11" d="M387.35,264.6c0,.12.54.22,1.2.22s1.2-.1,1.2-.22-.54-.21-1.2-.21S387.35,264.48,387.35,264.6Z" transform="translate(-42.07 -53.06)"/><path class="cls-11" d="M373.28,258.75c0,.25.43.45,1,.45s1-.2,1-.45-.43-.44-1-.44S373.28,258.51,373.28,258.75Z" transform="translate(-42.07 -53.06)"/><path class="cls-11" d="M374.24,260.09c0,.26.56.47,1.24.47s1.24-.21,1.24-.47-.55-.46-1.24-.46S374.24,259.84,374.24,260.09Z" transform="translate(-42.07 -53.06)"/><path class="cls-11" d="M372.57,261.56c0,.12.16.21.35.21s.36-.09.36-.21-.16-.21-.36-.21S372.57,261.44,372.57,261.56Z" transform="translate(-42.07 -53.06)"/></g><path class="cls-9" d="M394.06,341c0,14-.72,27.78,2.4,41.53,1.2,5.71,3.59,12.2,0,17.39-4.08,5.45-10.55,6.23-16.3,7.27A178.52,178.52,0,0,1,343,410.8c-7,0-29.25-2.85-27.34-14.79,1-6.75,8.16-10.12,7.92-17.39-.24-3.12-1.92-6-2.4-8.83-.24-3.11.48-5.71,1.2-8.56,1.68-6,.24-11.68.48-17.65.24-6.23-.72-11.42,6.47-11.16.48,0,1.2.26,1.92.26Z" transform="translate(-42.07 -53.06)"/><path class="cls-8" d="M330.29,320.22c5.27.78,6.95.26,11.51-2.6,6-4.15,12.94-4.67,19.66-2.85a75.07,75.07,0,0,0,18.7,2.07c4.55,0,12.7.26,16.3,3.38,4.07,3.63,1,11.42,1.68,16.61.24,2.6,1.43,5.71.48,8.31-1.44,3.11-5.52,5.19-8.16,6.74-10.78,6.75-25.41,8.31-37.16,3.64-5.51-2.08-11-6.49-17-5.71-4.07.26-10.79,3.11-13.66-.52-3.12-3.63-1-11.42-1-16.09,0-3.64-.48-10.64,2.88-12.72.64-.7,2.47-.26,3.31-.26A18.06,18.06,0,0,1,330.29,320.22Z" transform="translate(-42.07 -53.06)"/><path class="cls-9" d="M326.77,322.12c-2.42-.52-2.72,2.17-2.24,3.2,1,2.86,4.8,2.17,7,2.43,5,1,9.59,1.81,14.62,3.89,3.12,1,6.47,1,9.59,1.56,3.36.26,6.71,1.55,9.83,2.07a28.27,28.27,0,0,0,17.26-2.85c2.64-1.3,13.67-7.53,10.31-11.68-1.92-2.34-11.27-1.3-14.38-1.3a52.45,52.45,0,0,1-12.71-1c-5-.78-9.35-2.59-14.62-1.3-6.24,1.3-10.47,6-16.95,6Z" transform="translate(-42.07 -53.06)"/><g class="cls-30"><path class="cls-7" d="M328.61,327.21c-.84-.84-1-3.63.48-3.21-.12-1.39,0-3.07,1.68-2.37-.48-1.53,1.32-2.79,2.28-1.81.36-1,1.31-.56,1.91,0,.24.42-.12,1.11.12,1.39s.84-.14,1.08.14c.48.7.48,1.81.84,2.23.6.56,1.56-.28,1.68,1.26-.24-1.68,1.08-2.79,2-1.4a1.2,1.2,0,0,1,2-1.25c-.48-.84-.24-3.35.83-2.09-1.07-1.26-.36-3.91,1.32-2.38-.12-2.23,2.64-2.51,3-.55-.36-2.24,3.12-2.93,2.76-.14.12-1.4,1.32-2.65,2.15-1.26-.71-1.25.24-3.77,1.56-2.23-.48-1.81,1.56-4.05,2-1.81.36-1.12,2.28-1.12,2.88-.28s.48,1.81.48,2.79c.08-1.47,1.5-1.37,2.53-.69.31-1.12,1-1.82,1.42-.57.24-2.79,2.88-3.21,3.24-.28.48-2.65,2.76-.14,2.88,1.4,1.67-2,2.51.42,2.75,2.09.36-1.4,2-2.65,3-1.12.12-1.39,2-2.09,2.4-.55,0-2.1,2.87-2.93,2.75-.84,1.56-2.09,3.6-.14,3.12,1.95,2.16-.84,2.64.84,1.92,3.07,1.2-.7,3.6-.28,2.52,1.81,1.08-.83,4.07.28,2.51,2.1,1.2-.42,3.24.28,3,2.09l-5.75,7.53c-6.48,5-16.07,7.67-23.74,6.28a6.94,6.94,0,0,1-.9-.23,18.83,18.83,0,0,1-4,1.62,17.06,17.06,0,0,1-11.15-.83A51.2,51.2,0,0,0,337.12,336c-2.52-.56-7.55-1.82-7.19-5.86a1.44,1.44,0,0,1-.12.7C328.49,330.7,327.53,327.91,328.61,327.21Z" transform="translate(-42.07 -53.06)"/><path class="cls-11" d="M382.15,321.69c0,.48.65.87,1.44.87s1.44-.39,1.44-.87-.64-.87-1.44-.87S382.15,321.21,382.15,321.69Z" transform="translate(-42.07 -53.06)"/><ellipse class="cls-11" cx="338.08" cy="267.12" rx="1.44" ry="1.17"/><ellipse class="cls-11" cx="333.77" cy="272.61" rx="1.68" ry="1.3"/><ellipse class="cls-11" cx="328.53" cy="266.51" rx="1.08" ry="0.55"/><path class="cls-11" d="M359,318.57c0,.85,1.09,1.55,2.44,1.55s2.45-.7,2.45-1.55-1.09-1.55-2.45-1.55S359,317.71,359,318.57Z" transform="translate(-42.07 -53.06)"/><path class="cls-11" d="M359.54,325c0,.36.43.65,1,.65s1-.29,1-.65-.43-.65-1-.65S359.54,324.66,359.54,325Z" transform="translate(-42.07 -53.06)"/><path class="cls-11" d="M350.43,322.27a2,2,0,1,0,2-2.09A2.07,2.07,0,0,0,350.43,322.27Z" transform="translate(-42.07 -53.06)"/><ellipse class="cls-11" cx="311.41" cy="272.68" rx="1.02" ry="0.71"/><ellipse class="cls-11" cx="306.44" cy="266.86" rx="1.52" ry="0.91"/><ellipse class="cls-11" cx="337.96" cy="275.3" rx="2.12" ry="1.04"/><path class="cls-11" d="M366.49,329.65c0,.48.92.87,2.06.87s2.06-.39,2.06-.87-.93-.87-2.06-.87S366.49,329.17,366.49,329.65Z" transform="translate(-42.07 -53.06)"/><path class="cls-11" d="M366.49,324.52c0,.28.46.5,1,.5s1-.22,1-.5-.46-.49-1-.49S366.49,324.25,366.49,324.52Z" transform="translate(-42.07 -53.06)"/><ellipse class="cls-11" cx="318.66" cy="276.38" rx="1.2" ry="0.65"/><path class="cls-11" d="M343.63,325.31c0,.44.65.79,1.44.79s1.44-.35,1.44-.79-.64-.79-1.44-.79S343.63,324.88,343.63,325.31Z" transform="translate(-42.07 -53.06)"/><path class="cls-11" d="M337.56,326.71c0,.33.72.6,1.6.6s1.6-.27,1.6-.6-.72-.61-1.6-.61S337.56,326.37,337.56,326.71Z" transform="translate(-42.07 -53.06)"/><path class="cls-11" d="M387.59,325.56c0,.3.57.54,1.28.54s1.27-.24,1.27-.54-.57-.54-1.27-.54S387.59,325.26,387.59,325.56Z" transform="translate(-42.07 -53.06)"/><path class="cls-11" d="M386.63,323.81c0,.12.32.22.72.22s.72-.1.72-.22-.33-.22-.72-.22S386.63,323.69,386.63,323.81Z" transform="translate(-42.07 -53.06)"/><path class="cls-11" d="M373.12,332.29c0,.31.61.56,1.36.56s1.36-.25,1.36-.56-.61-.56-1.36-.56S373.12,332,373.12,332.29Z" transform="translate(-42.07 -53.06)"/><ellipse class="cls-11" cx="339.52" cy="272.83" rx="0.56" ry="0.22"/><ellipse class="cls-11" cx="340.36" cy="276.81" rx="0.84" ry="0.22"/><path class="cls-11" d="M376.56,317.05c0,.22.3.4.68.4s.68-.18.68-.4-.31-.4-.68-.4S376.56,316.83,376.56,317.05Z" transform="translate(-42.07 -53.06)"/><path class="cls-11" d="M345.63,328.57c0,.12.54.21,1.2.21s1.2-.09,1.2-.21-.54-.22-1.2-.22S345.63,328.45,345.63,328.57Z" transform="translate(-42.07 -53.06)"/><path class="cls-11" d="M331.57,322.72c0,.24.43.44,1,.44s1-.2,1-.44-.43-.45-1-.45S331.57,322.47,331.57,322.72Z" transform="translate(-42.07 -53.06)"/><path class="cls-11" d="M332.53,324.06c0,.26.55.46,1.24.46s1.23-.2,1.23-.46-.55-.47-1.23-.47S332.53,323.8,332.53,324.06Z" transform="translate(-42.07 -53.06)"/><path class="cls-11" d="M330.85,325.52c0,.12.16.21.36.21s.36-.09.36-.21-.16-.21-.36-.21S330.85,325.41,330.85,325.52Z" transform="translate(-42.07 -53.06)"/></g></g></g></svg>